<svg width="500" height="500" viewBox="0 0 500 500" fill="none" xmlns="http://www.w3.org/2000/svg">
<rect width="500" height="500" fill="white"/>
<path fill-rule="evenodd" clip-rule="evenodd" d="M285.349 243.801C290.18 238.097 292.753 230.948 292.753 223.492C292.753 206.302 278.802 192.152 261.658 192.076H261.58H232.354C222.768 192.076 214.974 199.912 214.974 209.496V289.518C214.974 299.179 222.768 306.936 232.354 306.936H234.224C235.237 306.936 236.016 306.1 236.016 305.111V210.181C236.016 209.724 236.406 209.343 236.873 209.343H261.11C268.904 209.343 275.295 215.579 275.449 223.262C275.529 227.068 274.046 230.718 271.397 233.381C268.748 236.118 265.164 237.639 261.346 237.639H252.615C251.371 237.639 250.28 238.401 249.734 239.541L245.057 250.344C244.823 250.876 244.823 251.561 245.213 252.092C245.524 252.624 246.148 252.928 246.693 252.928H261.346C271.475 252.928 279.814 261.069 279.97 271.034C280.048 275.979 278.178 280.695 274.672 284.194C271.163 287.693 266.566 289.669 261.658 289.669H248.407C247.083 289.669 245.914 290.507 245.446 291.724L240.46 304.58C240.224 305.111 240.304 305.796 240.694 306.254C241.005 306.788 241.551 307.013 242.174 307.013H261.268C281.295 307.013 297.659 290.814 297.659 270.957C297.584 260.463 293.14 250.648 285.349 243.801Z" fill="#002D74"/>
<path fill-rule="evenodd" clip-rule="evenodd" d="M358.837 199.302C357.045 194.814 352.991 192 348.16 192C343.327 192 339.276 194.814 337.484 199.302L296.181 304.504C295.945 305.038 296.023 305.644 296.337 306.178C296.649 306.636 297.194 306.937 297.817 306.937H306.702C312.39 306.937 317.377 303.515 319.483 298.265L347.771 226.305C347.849 226.003 348.082 226.003 348.16 226.003C348.238 226.003 348.472 226.003 348.55 226.231L359.85 254.907C359.928 255.061 359.85 255.212 359.772 255.288C359.694 255.439 359.538 255.439 359.461 255.439H344.576C343.327 255.439 342.158 256.201 341.691 257.417L337.016 269.207C336.782 269.742 336.86 270.347 337.172 270.882C337.484 271.339 338.029 271.643 338.655 271.643H365.849C366.242 271.643 366.553 271.871 366.631 272.175L376.918 298.191C379.02 303.441 384.009 306.86 389.621 306.86H398.038C398.817 306.86 399.441 306.482 399.906 305.874C400.298 305.263 400.373 304.504 400.139 303.819L358.837 199.302Z" fill="#002D74"/>
<mask id="mask0_1_2" style="mask-type:luminance" maskUnits="userSpaceOnUse" x="404" y="192" width="21" height="115">
<path d="M404.036 192H425V306.937H404.036V192Z" fill="#002D74"/>
</mask>
<g mask="url(#mask0_1_2)">
<path fill-rule="evenodd" clip-rule="evenodd" d="M407.701 192H405.828C404.818 192 404.036 192.836 404.036 193.825V289.596C404.036 299.18 411.83 306.937 421.339 306.937H423.208C424.221 306.937 425 306.102 425 305.112V209.418C425 199.834 417.206 192 407.701 192Z" fill="#002D74"/>
</g>
<path fill-rule="evenodd" clip-rule="evenodd" d="M88.5851 192.505H194.548V293.945C194.548 301.316 188.466 307.292 180.963 307.292H75V205.853C75 198.481 81.0823 192.505 88.5851 192.505Z" fill="url(#paint0_radial_1_2)"/>
<path fill-rule="evenodd" clip-rule="evenodd" d="M78.3618 249.507C78.3618 279.554 103.3 303.893 134.083 303.893C164.867 303.893 189.805 279.554 189.805 249.507C189.805 219.46 164.867 195.118 134.083 195.118C103.377 195.042 78.3618 219.46 78.3618 249.507Z" fill="#002D74"/>
<path fill-rule="evenodd" clip-rule="evenodd" d="M175.932 280.315C176.088 279.553 176.555 278.945 177.178 278.487C177.334 278.336 177.568 278.26 177.802 278.26C178.269 278.183 178.583 278.487 178.583 278.945C178.583 279.021 178.583 279.096 178.503 279.249C178.347 280.011 177.88 280.619 177.256 281.076C177.101 281.227 176.867 281.304 176.633 281.378C176.243 281.455 175.932 281.227 175.854 280.846C175.854 280.619 175.854 280.468 175.932 280.315ZM175.464 276.586C175.542 275.75 175.932 274.988 176.789 274.533C176.945 274.383 177.178 274.383 177.412 274.303C177.88 274.229 178.269 274.533 178.347 275.065V275.446C178.191 276.284 177.802 276.89 177.178 277.424C177.101 277.498 176.945 277.577 176.867 277.577C176.088 277.956 175.464 277.498 175.464 276.586ZM174.841 272.936C174.763 272.785 174.763 272.632 174.763 272.402C174.763 271.492 175.231 270.73 176.01 270.196C176.399 269.969 176.789 269.894 177.256 270.122C177.646 270.349 177.802 270.73 177.802 271.262C177.724 272.098 177.334 272.859 176.633 273.391C176.477 273.544 176.243 273.621 176.088 273.621C175.542 273.695 175.075 273.468 174.841 272.936ZM174.919 284.954C174.685 285.869 174.062 286.474 173.205 286.932C173.049 287.009 172.893 287.009 172.815 287.009C172.27 287.009 172.036 286.778 172.192 286.324C172.426 285.334 173.049 284.573 174.14 284.271C174.685 284.041 175.075 284.422 174.919 284.954ZM171.802 283.129C171.724 282.14 172.893 280.772 173.906 280.693C174.451 280.619 174.841 280.923 174.841 281.531C174.841 281.608 174.841 281.682 174.763 281.835C174.529 282.597 174.062 283.205 173.361 283.663C173.127 283.814 172.893 283.814 172.659 283.888C172.192 283.814 171.88 283.51 171.802 283.129ZM171.257 278.717C171.413 277.956 171.802 277.424 172.426 277.043C172.659 276.89 172.971 276.816 173.205 276.739C173.906 276.662 174.374 277.043 174.296 277.882C174.14 278.717 173.672 279.479 172.815 280.011C172.426 280.238 171.958 280.315 171.491 280.011C171.176 279.63 171.176 279.175 171.257 278.717ZM170.319 274.61C170.4 273.772 170.867 273.013 171.724 272.481C171.88 272.402 172.114 272.328 172.348 272.251C173.127 272.174 173.672 272.632 173.75 273.391C173.75 273.772 173.672 274.153 173.516 274.457C173.283 274.914 173.049 275.292 172.659 275.522C172.426 275.676 172.192 275.827 171.88 275.827C171.023 276.131 170.319 275.597 170.319 274.61ZM169.384 269.894C169.384 268.979 169.855 268.297 170.631 267.84C171.647 267.305 172.737 267.84 172.737 268.979C172.737 269.818 172.426 270.577 171.647 271.109C171.176 271.492 170.631 271.566 170.088 271.262C169.543 271.034 169.384 270.5 169.384 269.894ZM168.296 265.938C168.06 265.557 167.982 265.102 167.982 264.645C168.06 263.96 168.372 263.428 168.842 262.971C169.384 262.513 170.01 262.286 170.631 262.59C171.332 262.897 171.647 263.428 171.647 264.111C171.647 265.026 171.257 265.708 170.556 266.242C169.774 266.927 168.842 266.774 168.296 265.938ZM166.58 260.384C166.502 260.157 166.502 259.927 166.502 259.853C166.502 259.168 166.657 258.559 167.047 258.104C167.437 257.493 168.06 257.189 168.842 257.343C169.618 257.493 170.01 257.951 170.244 258.636C170.475 259.548 170.01 260.765 169.229 261.299C168.296 261.907 166.891 261.45 166.58 260.384ZM165.489 255.669C164.398 254.679 164.788 252.625 166.19 252.093C166.813 251.865 167.437 251.94 167.904 252.397C168.452 252.778 168.605 253.386 168.683 253.994C168.683 254.679 168.452 255.288 167.904 255.745C167.125 256.354 166.19 256.354 165.489 255.669ZM163.073 249.279C162.84 248.443 162.995 247.605 163.541 246.922C164.008 246.312 164.632 246.161 165.411 246.388C166.346 246.616 166.969 247.454 166.969 248.594C166.969 249.126 166.813 249.66 166.346 250.117C165.8 250.8 164.865 250.953 164.086 250.495C163.541 250.268 163.229 249.887 163.073 249.279ZM163.229 257.57C162.684 258.329 161.905 258.636 161.048 258.329C160.188 258.104 159.567 257.343 159.567 256.507C159.487 255.669 159.801 254.909 160.502 254.375C161.593 253.463 163.307 254.148 163.697 255.518C163.775 255.669 163.775 255.819 163.775 256.049C163.697 256.581 163.541 257.115 163.229 257.57ZM157.853 251.789C157.308 250.8 157.619 249.356 158.554 248.745C159.256 248.29 159.957 248.29 160.658 248.671C161.359 249.051 161.827 249.736 161.827 250.572C161.827 251.03 161.749 251.408 161.515 251.789C161.126 252.474 160.58 252.929 159.723 252.855C158.941 252.855 158.321 252.474 157.853 251.789ZM155.591 244.791C155.591 244.41 155.749 244.029 155.981 243.651C156.451 242.889 157.152 242.585 158.009 242.736C159.178 242.966 159.957 243.802 159.957 245.095C159.957 245.476 159.801 245.857 159.567 246.237C159.022 247.073 158.084 247.454 157.152 247.073C156.136 246.769 155.513 245.857 155.591 244.791ZM154.033 254.909C153.487 254.83 153.02 254.679 152.708 254.299C152.163 253.616 151.929 252.855 152.241 252.019C152.474 251.18 153.098 250.723 153.955 250.572C154.812 250.342 155.591 250.723 156.136 251.408C156.37 251.789 156.526 252.246 156.526 252.55C156.451 253.994 155.279 254.984 154.033 254.909ZM149.903 246.769C150.137 245.78 150.527 245.018 151.54 244.714C152.397 244.487 153.487 244.944 154.033 245.703C154.267 246.007 154.422 246.388 154.422 246.846C154.422 247.528 154.189 248.213 153.721 248.745C153.332 249.202 152.708 249.356 152.241 249.356C150.838 249.279 149.747 248.062 149.903 246.769ZM148.423 257.189C147.176 257.189 146.163 256.123 146.163 254.756C146.163 253.537 147.332 252.474 148.657 252.474C149.903 252.474 150.916 253.537 150.916 254.83C150.838 256.2 149.825 257.189 148.423 257.189ZM144.213 249.051C144.213 247.835 145.226 246.846 146.55 246.846C147.797 246.846 148.735 247.835 148.735 249.126C148.735 250.419 147.722 251.331 146.395 251.331C145.148 251.331 144.213 250.268 144.213 249.051ZM142.811 259.244C141.408 259.244 140.317 258.329 140.317 257.115C140.317 255.669 141.33 254.526 142.577 254.526C143.979 254.526 145.07 255.518 145.07 256.658C145.07 258.104 144.06 259.244 142.811 259.244ZM138.136 251.331C138.136 249.887 139.226 248.821 140.551 248.821C141.876 248.821 142.966 249.887 142.888 251.18C142.888 252.474 141.798 253.537 140.551 253.537C139.304 253.537 138.136 252.474 138.136 251.331ZM136.889 261.373C135.487 261.373 134.393 260.31 134.393 259.168C134.393 257.798 135.487 256.658 136.733 256.658C138.136 256.658 139.226 257.721 139.226 258.94C139.149 260.31 138.136 261.45 136.889 261.373ZM132.212 253.463C132.212 252.093 133.227 250.953 134.63 250.953C136.032 250.953 137.045 251.94 137.045 253.312C137.045 254.526 135.952 255.669 134.785 255.669C133.38 255.669 132.212 254.603 132.212 253.463ZM131.043 263.505C129.64 263.505 128.55 262.439 128.55 261.299C128.55 260.006 129.563 258.863 130.809 258.863C132.212 258.863 133.38 259.927 133.38 261.146C133.302 262.362 132.212 263.505 131.043 263.505ZM126.29 255.441C126.29 254.148 127.303 253.005 128.55 253.005C129.952 253.005 131.121 254.071 131.121 255.214C131.121 256.581 130.108 257.647 128.783 257.721C127.459 257.721 126.29 256.732 126.29 255.441ZM122.859 259.702C121.613 259.702 120.525 258.636 120.6 257.417C120.6 256.2 121.613 255.288 122.859 255.288C124.031 255.288 125.121 256.354 125.121 257.57C125.121 258.713 124.186 259.702 122.859 259.702ZM118.34 251.789C118.34 250.495 119.431 249.356 120.6 249.356C121.927 249.356 123.096 250.419 123.096 251.561C123.096 252.929 122.002 253.994 120.756 253.994C119.431 253.994 118.34 253.005 118.34 251.789ZM116.47 245.172C116.626 244.867 116.782 244.563 117.016 244.259C117.405 243.802 117.951 243.651 118.652 243.651C119.353 243.651 119.977 243.952 120.525 244.563C120.834 244.944 120.989 245.399 120.989 245.857C120.911 246.616 120.6 247.224 120.054 247.758C119.665 248.139 119.197 248.29 118.73 248.29C117.016 248.29 115.925 246.692 116.47 245.172ZM122.472 235.965C123.641 235.965 124.654 236.957 124.654 238.174C124.654 239.39 123.561 240.379 122.314 240.379C121.145 240.379 120.132 239.39 120.132 238.25C120.132 236.957 121.226 235.965 122.472 235.965ZM124.031 230.033C124.262 229.121 124.888 228.589 125.823 228.436H126.134C127.147 228.436 128.004 228.97 128.316 229.806C128.628 230.567 128.394 231.48 127.693 232.088C126.836 232.771 125.511 232.771 124.654 232.088C124.031 231.48 123.797 230.795 124.031 230.033ZM129.64 228.285C129.796 227.219 130.653 226.381 131.744 226.307H132.37C133.617 226.458 134.393 227.447 134.318 228.589C134.237 229.652 133.227 230.567 131.978 230.642C131.744 230.567 131.51 230.567 131.277 230.491C130.264 230.187 129.563 229.274 129.64 228.285ZM136.653 224.633C137.668 224.178 138.915 224.405 139.616 225.241C140.161 225.849 140.161 226.534 139.928 227.296C139.616 228.055 139.071 228.436 138.214 228.589H138.058H137.824C137.201 228.589 136.733 228.359 136.188 228.055C134.863 226.992 135.487 225.09 136.653 224.633ZM141.33 223.874C141.642 223.112 142.265 222.58 143.122 222.58C143.901 222.58 144.68 222.885 145.226 223.416C145.618 223.797 145.693 224.252 145.774 224.633C145.774 225.849 144.761 226.838 143.59 226.762C142.888 226.762 142.265 226.458 141.72 225.926C141.096 225.318 141.019 224.633 141.33 223.874ZM148.423 220.983C149.436 220.83 150.605 221.364 150.994 222.276C151.773 223.874 150.449 225.09 149.28 225.014C148.345 225.014 147.566 224.633 147.096 223.874C146.239 222.654 147.176 221.134 148.423 220.983ZM153.487 228.359C153.565 229.502 152.474 230.567 151.15 230.337C149.825 230.11 148.89 228.893 149.124 227.677C149.358 226.611 150.137 226.003 151.228 226.079C152.241 226.156 153.565 227.219 153.487 228.359ZM154.89 225.164C155.357 224.559 155.981 224.405 156.682 224.559C157.773 224.784 158.554 225.545 158.71 226.534C158.786 226.915 158.71 227.296 158.554 227.677C158.24 228.285 157.697 228.666 157.071 228.666C155.825 228.666 155.046 228.132 154.656 227.143C154.267 226.458 154.422 225.775 154.89 225.164ZM154.267 237.489C154.578 237.185 154.968 237.108 155.435 237.108C156.451 237.108 157.227 237.563 157.619 238.478C158.009 239.39 157.853 240.226 157.152 240.988C156.916 241.215 156.682 241.445 156.292 241.519C155.279 241.749 154.111 241.215 153.643 240.303C153.176 239.314 153.409 238.174 154.267 237.489ZM151.306 234.143C151.072 233.305 151.306 232.62 151.929 232.012C152.241 231.707 152.63 231.554 153.098 231.554C154.5 231.48 155.749 232.696 155.669 233.913C155.669 235.36 154.344 236.272 152.942 235.891C152.163 235.587 151.54 234.979 151.306 234.143ZM149.903 239.009C151.228 239.009 152.319 239.999 152.319 241.215C152.319 242.508 151.462 243.498 150.293 243.574C148.89 243.574 147.797 242.585 147.797 241.292C147.797 240.075 148.735 238.935 149.903 239.009ZM146.55 237.338C145.849 236.88 145.538 236.272 145.538 235.434C145.538 234.143 146.475 233.305 147.797 233.305C148.813 233.305 149.825 234.066 150.059 235.056C150.293 235.965 149.825 237.108 149.046 237.64C148.657 237.87 148.267 237.944 147.878 237.87C147.41 237.793 146.94 237.64 146.55 237.338ZM144.369 241.064C145.618 241.064 146.631 242.13 146.631 243.347C146.631 244.563 145.618 245.476 144.369 245.476C143.044 245.476 142.031 244.487 142.031 243.193C142.031 241.977 143.044 241.064 144.369 241.064ZM143.512 229.957C143.434 228.817 144.369 227.904 145.693 227.904C146.94 227.904 148.033 228.97 147.955 230.187C147.955 231.173 147.176 231.935 146.083 232.088C144.761 232.316 143.512 231.25 143.512 229.957ZM139.772 237.489C139.772 236.272 140.785 235.206 142.031 235.206C143.356 235.206 144.525 236.195 144.525 237.412C144.525 238.705 143.512 239.771 142.187 239.771C140.863 239.848 139.772 238.782 139.772 237.489ZM138.369 243.117C139.694 243.117 140.707 244.106 140.707 245.399C140.707 246.616 139.694 247.605 138.369 247.605C137.123 247.605 136.107 246.616 136.107 245.325C136.107 244.106 137.123 243.117 138.369 243.117ZM137.668 231.861C137.668 230.718 138.681 229.806 139.928 229.806C141.174 229.806 142.187 230.872 142.187 232.088C142.187 233.228 141.174 234.143 139.928 234.143C138.681 234.066 137.668 233.001 137.668 231.861ZM133.928 239.618C133.928 238.401 134.939 237.338 136.188 237.338C137.512 237.338 138.525 238.324 138.525 239.541C138.525 240.758 137.512 241.749 136.266 241.749C135.019 241.823 134.004 240.834 133.928 239.618ZM132.523 245.248C133.773 245.248 134.785 246.237 134.785 247.528C134.785 248.821 133.773 249.811 132.445 249.811C131.199 249.811 130.186 248.821 130.186 247.454C130.108 246.237 131.199 245.248 132.523 245.248ZM131.822 233.913C131.822 232.696 132.835 231.784 134.159 231.784C135.406 231.784 136.422 232.771 136.344 233.99C136.344 235.206 135.331 236.119 134.084 236.119C132.835 236.119 131.822 235.056 131.822 233.913ZM127.926 241.823C127.926 240.456 129.017 239.39 130.42 239.39C131.744 239.39 132.757 240.456 132.757 241.749C132.757 242.966 131.588 244.029 130.42 244.029C129.017 244.029 127.926 243.043 127.926 241.823ZM126.602 247.224C127.848 247.224 129.017 248.29 129.017 249.506C129.017 250.8 127.926 251.94 126.758 251.94C125.355 251.94 124.186 250.876 124.186 249.66C124.186 248.29 125.199 247.224 126.602 247.224ZM125.979 235.965C125.979 234.749 127.069 233.836 128.316 233.836C129.563 233.836 130.498 234.826 130.498 236.042C130.498 237.261 129.407 238.25 128.16 238.25C126.913 238.174 125.979 237.185 125.979 235.965ZM126.836 243.651C126.836 245.018 125.745 246.161 124.576 246.161C123.096 246.161 122.083 245.172 122.083 243.878C122.083 242.585 123.174 241.519 124.42 241.519C125.745 241.519 126.836 242.508 126.836 243.651ZM160.892 232.239C160.892 232.696 160.736 233.151 160.424 233.532C159.879 234.143 159.1 234.294 158.24 233.99C156.994 233.532 156.37 232.165 156.916 230.948C157.227 230.187 157.928 229.806 158.71 229.882C159.957 229.957 160.892 230.948 160.892 232.239ZM161.749 223.263C162.762 223.567 163.385 224.329 163.541 225.241C163.697 226.381 162.84 227.143 161.671 226.992C160.58 226.838 159.645 225.849 159.645 224.784C159.723 223.72 160.658 222.961 161.749 223.263ZM164.398 228.589C165.255 229.044 165.645 229.729 165.722 230.491C165.722 231.935 164.554 232.696 163.307 232.165C162.45 231.784 161.905 230.872 161.905 230.033C161.983 228.74 163.229 227.978 164.398 228.589ZM166.19 221.97C167.281 222.2 168.14 223.186 168.14 224.252C168.14 225.318 167.359 225.926 166.346 225.699C165.255 225.471 164.398 224.405 164.476 223.339C164.476 222.35 165.255 221.742 166.19 221.97ZM170.319 229.274C170.319 229.502 170.319 229.729 170.244 229.957C170.088 230.642 169.462 231.022 168.761 230.948C167.359 230.795 166.346 229.351 166.735 228.055C166.969 227.296 167.515 226.915 168.372 226.992C169.229 227.068 170.475 228.208 170.319 229.274ZM171.724 232.771C172.348 233.381 172.582 234.143 172.348 234.979C172.114 236.119 171.101 236.576 170.01 235.965C169.229 235.51 168.761 234.826 168.761 233.686C168.761 233.305 168.917 232.924 169.229 232.546C169.543 232.165 170.01 232.012 170.475 232.088C171.023 232.239 171.413 232.392 171.724 232.771ZM174.296 239.694C174.296 240.226 174.14 240.758 173.75 241.138C173.361 241.519 172.893 241.673 172.348 241.519C171.647 241.292 171.176 240.834 170.867 240.152C170.631 239.541 170.631 238.859 170.945 238.25C171.332 237.412 172.192 237.108 173.049 237.563C173.906 238.02 174.296 238.782 174.296 239.694ZM174.374 242.736C174.997 242.813 175.542 243.193 175.776 243.728C176.166 244.487 176.166 245.325 175.698 246.084C175.153 246.997 174.14 247.147 173.361 246.388C172.893 245.931 172.582 245.325 172.582 244.791C172.582 244.106 172.737 243.574 173.205 243.117C173.594 242.736 173.984 242.662 174.374 242.736ZM175.309 236.804C175.62 235.891 176.477 235.664 177.256 236.195C177.958 236.727 178.269 237.412 178.347 238.25C178.269 238.555 178.191 238.859 178.113 239.16C177.724 239.922 176.945 240.152 176.243 239.694C175.854 239.467 175.62 239.086 175.386 238.705C175.075 238.02 174.997 237.412 175.309 236.804ZM179.285 241.519C179.75 241.977 179.986 242.508 179.905 243.117C179.905 243.728 179.828 244.183 179.516 244.563C179.048 245.172 178.425 245.248 177.802 244.867C177.568 244.714 177.334 244.487 177.178 244.259C176.711 243.421 176.633 242.585 177.101 241.749C177.568 240.911 178.583 240.758 179.285 241.519ZM180.687 246.616C181.155 246.997 181.388 247.605 181.388 248.29C181.388 248.745 181.233 249.202 180.999 249.583C180.531 250.268 179.75 250.268 179.204 249.66C178.425 248.821 178.503 247.377 179.285 246.616C179.594 246.161 180.217 246.161 180.687 246.616ZM182.321 251.94C182.557 252.323 182.635 252.701 182.635 253.233C182.635 253.69 182.479 254.222 182.09 254.756C181.62 255.364 180.918 255.364 180.451 254.83C180.298 254.679 180.142 254.452 180.061 254.148C179.828 253.312 179.905 252.474 180.451 251.789C180.918 251.03 181.856 251.104 182.321 251.94ZM182.557 245.095C182.947 244.487 183.57 244.487 184.037 245.018C184.661 245.78 184.739 247.073 184.193 247.835C183.804 248.366 183.258 248.443 182.791 247.986C182.321 247.528 182.245 246.922 182.165 246.388C182.245 245.857 182.321 245.476 182.557 245.095ZM185.362 250.041C185.596 250.342 185.674 250.876 185.674 251.485C185.674 251.865 185.518 252.323 185.206 252.778C184.817 253.386 184.193 253.386 183.804 252.778C183.258 252.019 183.258 250.723 183.882 249.964C184.349 249.356 184.972 249.432 185.362 250.041ZM185.674 243.574C185.985 243.043 186.453 242.966 186.842 243.498C187.466 244.333 187.622 245.172 187.154 246.161C186.842 246.769 186.297 246.846 185.907 246.312C185.518 245.857 185.44 245.325 185.44 244.791C185.362 244.259 185.44 243.878 185.674 243.574ZM184.739 266.242V266.546C184.661 267.305 184.349 267.993 183.804 268.599C183.723 268.675 183.57 268.752 183.492 268.829C183.103 268.979 182.791 268.903 182.557 268.525C182.479 268.371 182.401 268.144 182.401 267.993C182.401 267.155 182.635 266.47 183.258 265.861C183.492 265.634 183.723 265.404 184.115 265.557C184.505 265.557 184.661 265.861 184.739 266.242ZM184.895 270.426C184.817 271.188 184.505 271.87 183.96 272.481C183.882 272.555 183.723 272.706 183.648 272.706C183.258 272.936 182.947 272.785 182.866 272.402C182.866 272.328 182.866 272.174 182.791 272.024C182.866 271.188 183.18 270.5 183.804 269.894C184.037 269.664 184.271 269.511 184.661 269.664C184.895 269.818 184.895 270.122 184.895 270.426ZM182.009 263.806C181.934 263.579 181.934 263.428 181.934 263.201C181.934 262.667 182.09 262.209 182.401 261.754C182.479 261.603 182.557 261.524 182.635 261.373C182.866 261.069 183.18 260.916 183.57 260.992C183.96 261.069 184.115 261.373 184.193 261.754C184.349 262.667 184.115 263.505 183.492 264.111C182.947 264.798 182.245 264.568 182.009 263.806ZM181.856 276.816C181.7 277.498 181.308 278.032 180.843 278.487C180.762 278.564 180.607 278.717 180.451 278.791C179.986 279.021 179.516 278.791 179.594 278.26C179.672 277.347 180.142 276.586 180.918 276.054C180.999 276.054 180.999 275.98 181.074 275.98C181.544 275.75 181.934 275.98 181.934 276.586C181.856 276.586 181.856 276.662 181.856 276.816ZM179.36 274.229C179.441 273.468 179.75 272.859 180.298 272.402C180.451 272.251 180.687 272.098 180.843 272.024C181.308 271.87 181.7 272.098 181.856 272.555V272.859C181.775 273.695 181.464 274.457 180.687 274.988C180.373 275.218 180.061 275.369 179.672 275.142C179.36 274.914 179.285 274.61 179.36 274.229ZM181.856 256.428C182.245 256.124 182.791 256.124 183.103 256.507C183.492 256.885 183.57 257.343 183.57 257.874C183.57 258.408 183.414 259.014 183.022 259.548C182.401 260.31 181.544 260.233 181.155 259.318C180.762 258.408 181.074 256.962 181.856 256.428ZM178.893 270.654C178.893 270.577 178.815 270.5 178.815 270.5C178.583 269.59 179.204 268.297 180.061 267.84C180.687 267.459 181.308 267.763 181.464 268.448V268.752C181.388 269.59 181.155 270.273 180.531 270.884C180.373 271.034 180.298 271.109 180.142 271.188C179.672 271.415 179.126 271.188 178.893 270.654ZM179.048 263.505C179.126 263.428 179.285 263.351 179.441 263.275C179.986 263.047 180.531 263.201 180.762 263.732C180.843 263.96 180.918 264.264 180.999 264.494C180.918 265.102 180.762 265.634 180.373 266.091C180.298 266.242 180.142 266.316 179.986 266.47C179.36 266.927 178.659 266.774 178.347 266.165C178.269 266.012 178.191 265.785 178.191 265.557C178.113 264.798 178.425 264.036 179.048 263.505ZM177.101 260.916C177.023 260.157 177.178 259.472 177.646 258.863C177.802 258.713 177.958 258.483 178.191 258.408C178.659 258.104 179.204 258.178 179.594 258.559C179.905 258.863 180.061 259.318 180.061 259.927C180.061 260.537 179.828 261.22 179.285 261.754C178.583 262.439 177.646 262.286 177.256 261.45C177.178 261.299 177.101 261.069 177.101 260.916ZM173.906 267.689C173.906 266.85 174.296 266.091 174.997 265.557C175.62 265.102 176.321 265.176 176.789 265.785C177.023 266.091 177.101 266.396 177.101 266.7C177.101 267.535 176.711 268.22 176.088 268.752C175.698 269.133 175.153 269.286 174.607 269.056C174.062 268.829 173.906 268.371 173.828 267.84C173.906 267.84 173.906 267.763 173.906 267.689ZM173.594 260.765C174.529 260.006 175.698 260.384 176.01 261.524C176.243 262.439 175.854 263.579 175.075 264.187C174.296 264.719 173.205 264.415 172.893 263.579C172.815 263.351 172.815 263.047 172.737 262.817C172.737 261.982 172.971 261.299 173.594 260.765ZM178.503 253.69C178.815 254.071 178.97 254.452 178.97 255.06C178.97 255.592 178.815 256.2 178.347 256.732C177.724 257.417 176.945 257.417 176.243 256.732C175.854 256.354 175.698 255.896 175.776 255.364C175.776 254.756 176.01 254.148 176.477 253.616C177.101 253.005 177.88 253.005 178.503 253.69ZM177.101 251.485C176.477 252.246 175.62 252.246 174.919 251.561C174.529 251.18 174.374 250.649 174.374 250.041C174.374 249.506 174.529 248.975 174.919 248.594C175.542 247.909 176.477 247.909 177.023 248.594C177.724 249.356 177.724 250.723 177.101 251.485ZM172.27 255.592C172.971 255.06 173.906 255.214 174.374 255.896C174.607 256.277 174.763 256.658 174.763 257.266C174.763 257.721 174.529 258.329 174.062 258.787C173.361 259.548 172.192 259.395 171.647 258.483C171.101 257.647 171.413 256.277 172.27 255.592ZM170.556 250.191C171.101 249.736 171.647 249.736 172.27 250.041C172.971 250.419 173.361 251.104 173.361 252.093C173.361 252.625 173.127 253.159 172.659 253.616C171.802 254.375 170.712 254.222 170.088 253.312C169.462 252.397 169.699 250.953 170.556 250.191ZM168.296 245.325C168.917 244.333 170.166 244.106 171.023 244.944C171.491 245.399 171.724 246.007 171.724 246.769C171.724 247.301 171.491 247.909 170.945 248.366C170.556 248.671 170.088 248.745 169.618 248.671C168.683 248.443 167.982 247.605 167.982 246.692C167.904 246.237 168.06 245.78 168.296 245.325ZM166.735 239.467C167.203 239.009 167.748 238.935 168.296 239.086C169.229 239.39 169.93 240.303 169.93 241.369C169.93 241.749 169.774 242.13 169.543 242.585C169.073 243.347 168.216 243.574 167.359 243.193C165.956 242.508 165.567 240.533 166.735 239.467ZM164.32 234.445C164.788 233.609 165.645 233.381 166.58 233.762C167.437 234.143 167.982 234.979 167.982 235.965C167.982 236.272 167.904 236.727 167.67 237.031C167.359 237.563 166.891 237.87 166.19 237.793C164.71 237.87 163.307 236.042 164.32 234.445ZM159.487 238.935C158.554 237.944 158.554 236.653 159.487 235.741C159.801 235.434 160.188 235.283 160.658 235.283C161.905 235.206 163.073 236.423 162.995 237.563C162.995 238.478 162.528 239.237 161.749 239.541C161.126 239.848 160.113 239.541 159.487 238.935ZM161.905 241.138C162.216 240.911 162.528 240.834 162.918 240.834C164.32 240.834 165.255 242.13 165.177 242.966C165.177 243.728 164.943 244.333 164.476 244.791C164.008 245.248 163.385 245.399 162.762 245.172C161.827 244.867 161.281 244.333 161.048 243.421C160.814 242.508 161.126 241.673 161.905 241.138ZM171.569 215.81C171.802 215.887 172.114 215.961 172.27 216.114C172.815 216.418 173.127 216.873 173.361 217.407C173.439 217.635 173.516 217.939 173.439 218.243C173.439 218.624 173.049 218.851 172.659 218.851H172.426C171.491 218.701 170.556 217.711 170.475 216.796V216.646C170.556 216.037 170.945 215.733 171.569 215.81ZM172.27 211.473C172.426 211.473 172.582 211.549 172.659 211.626C173.205 211.93 173.75 212.311 174.062 212.919C174.218 213.147 174.296 213.451 174.374 213.678C174.296 214.136 174.062 214.289 173.594 214.212C172.737 214.059 171.647 212.996 171.491 212.158C171.491 211.703 171.802 211.398 172.27 211.473ZM174.763 215.429C174.919 215.506 175.153 215.58 175.309 215.657C175.854 216.037 176.321 216.495 176.555 217.103C176.633 217.331 176.711 217.558 176.711 217.711C176.711 218.32 176.321 218.624 175.776 218.394C174.841 218.016 174.218 217.331 173.984 216.342V215.961C174.062 215.506 174.374 215.352 174.763 215.429ZM165.489 206.757C165.021 206.757 164.632 206.606 164.242 206.225C163.697 205.768 163.151 205.236 162.606 204.705C162.606 204.705 162.606 204.628 162.528 204.628C162.372 204.398 162.45 204.324 162.684 204.247H162.84C163.619 204.398 164.32 204.475 165.021 204.855C165.333 205.009 165.567 205.236 165.8 205.54C165.878 205.615 165.956 205.768 166.034 205.921C166.268 206.376 166.034 206.68 165.489 206.757ZM181.7 223.644C182.009 223.493 182.245 223.644 182.401 223.797C183.022 224.329 183.414 225.09 183.492 225.926V226.156C183.414 226.534 183.18 226.611 182.866 226.534C182.713 226.458 182.557 226.381 182.401 226.23C181.856 225.699 181.544 225.09 181.464 224.329C181.388 224.101 181.464 223.797 181.7 223.644ZM188.011 242.355C188.089 242.13 188.167 241.823 188.479 241.823C188.79 241.749 188.946 241.977 189.102 242.204C189.414 242.662 189.491 243.193 189.491 243.728C189.414 244.029 189.414 244.333 189.336 244.64C189.258 244.867 189.18 245.095 188.868 245.095C188.634 245.172 188.479 244.944 188.323 244.791C188.167 244.487 188.011 244.259 187.933 243.952C187.855 243.421 187.855 242.889 188.011 242.355ZM176.555 284.573C176.243 284.573 176.01 284.422 176.01 284.195C176.01 284.041 176.01 283.888 176.088 283.737C176.321 282.975 176.789 282.37 177.49 281.986C177.646 281.912 177.802 281.835 178.035 281.835C178.347 281.835 178.503 281.986 178.503 282.29C178.503 282.37 178.503 282.444 178.425 282.52C180.061 280.468 181.544 278.26 182.791 275.98V275.75C182.791 275.369 182.947 274.914 183.18 274.61C183.414 274.303 183.57 273.999 183.882 273.695C183.96 273.621 184.115 273.468 184.271 273.468C184.817 272.328 185.362 271.109 185.907 269.969V269.511C185.985 268.903 186.219 268.371 186.531 267.914C186.687 267.763 186.764 267.61 186.92 267.382C187.076 267.001 187.154 266.623 187.31 266.242H187.232C187.076 266.316 186.92 266.396 186.687 266.47C186.141 266.7 185.83 266.546 185.674 266.012C185.596 265.785 185.674 265.557 185.674 265.33C185.752 264.645 186.063 264.036 186.453 263.505C186.609 263.275 186.842 263.047 186.998 262.817C187.154 262.513 186.998 262.362 186.687 262.362C186.531 262.362 186.297 262.439 186.141 262.439C185.83 262.513 185.596 262.362 185.44 262.058C185.362 261.907 185.284 261.754 185.284 261.603C185.206 260.992 185.284 260.384 185.596 259.776C185.752 259.472 185.985 259.168 186.219 258.787C186.297 258.636 186.453 258.483 186.531 258.329C186.609 258.255 186.609 258.025 186.609 257.951C186.531 257.874 186.375 257.874 186.297 257.798C186.141 257.798 186.063 257.798 185.907 257.874C185.206 258.025 184.895 257.798 184.661 257.115C184.271 256.277 184.427 255.441 184.972 254.679C185.05 254.603 185.05 254.526 185.128 254.526C185.518 254.222 185.985 254.222 186.297 254.679C186.453 254.83 186.531 255.06 186.609 255.288C186.687 255.592 186.842 255.896 186.92 256.2C186.998 256.354 186.998 256.507 187.232 256.507C187.388 256.354 187.388 256.2 187.388 255.973V254.679C187.388 253.767 187.622 253.005 188.245 252.323C188.401 252.17 188.479 252.019 188.556 251.865C188.634 251.715 188.868 251.561 188.712 251.331C188.556 251.18 188.401 251.257 188.167 251.257C188.011 251.331 187.855 251.331 187.622 251.408C187.232 251.485 186.92 251.331 186.764 251.03C186.297 250.117 186.297 249.126 186.842 248.213C187.154 247.681 187.622 247.758 187.933 248.213C188.011 248.366 188.089 248.443 188.167 248.594C188.245 248.821 188.323 248.975 188.479 249.202C188.556 249.279 188.634 249.432 188.712 249.506C188.868 249.356 188.946 249.202 188.946 248.975V247.986C188.946 247.605 189.024 247.301 189.102 246.922C189.102 246.769 189.18 246.616 189.336 246.465C189.491 246.237 189.647 246.237 189.803 246.312C189.647 243.27 189.18 240.303 188.556 237.338C188.479 237.261 188.401 237.108 188.245 237.108V237.64C188.323 238.02 188.401 238.478 188.401 238.859C188.401 239.16 188.401 239.541 188.323 239.848C188.167 240.379 187.699 240.456 187.388 240.075C187.232 239.848 187.154 239.618 186.998 239.467C186.764 239.086 186.609 238.705 186.453 238.324C186.375 238.174 186.297 238.097 186.141 238.02H186.063C186.063 238.174 185.985 238.324 185.985 238.478C185.985 238.859 186.063 239.237 186.141 239.618C186.141 239.922 186.219 240.226 186.219 240.533C186.219 240.758 186.141 241.064 186.063 241.292C185.83 241.9 185.284 241.977 184.817 241.519C184.583 241.445 184.427 241.292 184.349 241.138C184.193 240.911 184.115 240.684 183.96 240.456C183.804 240.152 183.648 239.848 183.492 239.618C183.414 239.467 183.258 239.39 183.18 239.314C182.947 239.541 183.022 239.694 183.022 239.922C183.103 240.456 183.18 240.988 183.258 241.519C183.336 241.977 183.258 242.432 183.022 242.889C182.635 243.574 182.009 243.728 181.388 243.193C180.451 242.355 180.217 240.456 181.464 239.541C181.7 239.39 181.934 239.237 182.09 239.086C182.245 238.935 182.479 238.782 182.321 238.555C182.245 238.324 182.009 238.401 181.775 238.401C181.464 238.401 181.155 238.401 180.843 238.478C180.298 238.478 179.828 238.25 179.516 237.87C179.204 237.489 179.048 237.031 178.97 236.5C178.893 235.741 179.126 235.13 179.75 234.675C179.986 234.521 180.217 234.368 180.373 234.143C180.531 234.066 180.687 233.913 180.607 233.686C180.531 233.458 180.298 233.532 180.142 233.458H179.75H179.048C178.503 233.458 178.035 233.305 177.724 232.847C177.49 232.546 177.256 232.239 177.101 231.935C176.867 231.554 176.633 231.173 176.399 230.795C176.321 230.642 176.243 230.491 176.01 230.491C175.854 230.642 175.932 230.872 175.932 231.022C176.01 231.554 176.166 232.165 176.243 232.696C176.321 233.077 176.321 233.458 176.166 233.762C175.854 234.598 174.997 234.902 174.218 234.368C173.516 233.913 173.127 233.228 173.127 232.392C173.127 231.707 173.361 231.25 173.906 230.872C174.218 230.642 174.529 230.491 174.841 230.263C174.997 230.187 175.231 230.033 175.153 229.806C175.075 229.576 174.841 229.576 174.607 229.576H173.361C172.582 229.576 171.958 229.274 171.413 228.666C170.556 227.677 170.712 226.381 171.88 225.699C172.114 225.545 172.348 225.394 172.582 225.241C172.737 225.09 172.971 225.014 172.893 224.784C172.815 224.559 172.582 224.559 172.348 224.559C171.88 224.559 171.491 224.559 171.023 224.482C170.867 224.482 170.475 224.482 170.166 224.252C169.699 223.948 169.309 223.567 169.073 223.035C168.917 222.654 168.842 222.276 168.997 221.819C169.153 221.21 169.699 220.906 170.319 221.057C170.712 221.134 171.101 221.287 171.413 221.589C171.647 221.819 171.88 222.123 172.036 222.35C172.348 222.731 172.582 223.186 172.893 223.567C172.971 223.72 173.127 223.874 173.283 223.874C173.439 223.72 173.361 223.567 173.361 223.416C173.283 222.961 173.127 222.504 173.049 222.046C172.971 221.742 172.893 221.364 172.971 221.057C172.971 220.449 173.439 220.145 173.984 220.221C174.374 220.298 174.685 220.449 174.997 220.753C175.231 220.983 175.386 221.21 175.62 221.438C175.854 221.665 176.01 221.97 176.243 222.2C176.321 222.35 176.477 222.427 176.633 222.427C176.789 222.276 176.711 222.046 176.711 221.819C176.633 221.438 176.555 221.057 176.477 220.679C176.477 220.372 176.477 219.991 176.789 219.766C177.101 219.536 177.412 219.69 177.724 219.917C178.425 220.372 178.893 220.983 179.048 221.742C179.204 222.276 179.048 222.731 178.583 223.035C178.425 223.112 178.347 223.263 178.191 223.339C178.035 223.567 178.035 223.72 178.347 223.874C178.583 223.948 178.737 223.948 178.97 224.024C180.142 224.252 180.918 225.09 181.155 226.307C181.233 226.838 181.074 227.296 180.687 227.677C180.607 227.753 180.531 227.828 180.451 227.904C180.298 228.055 180.217 228.132 180.217 228.359C180.298 228.589 180.451 228.589 180.687 228.666C180.762 228.666 180.918 228.74 180.999 228.74C181.7 228.817 182.245 229.121 182.635 229.729C182.791 230.033 183.022 230.337 183.18 230.567C183.258 230.718 183.336 230.872 183.57 230.872C183.723 230.642 183.723 230.642 183.648 230.414C183.57 230.033 183.492 229.652 183.492 229.274V228.513C183.57 228.055 183.96 227.978 184.271 228.208C184.427 228.285 184.583 228.436 184.739 228.589C184.972 228.893 185.128 229.197 185.362 229.502C185.44 229.652 185.518 229.806 185.752 229.729V229.274C185.752 229.121 185.674 228.97 185.674 228.817C184.349 225.775 182.791 222.808 180.999 220.068V220.221C181.074 220.602 181.233 221.057 181.388 221.438C181.464 221.742 181.544 221.97 181.233 222.2C180.999 222.35 180.687 222.2 180.451 222.046C179.828 221.589 179.441 220.983 179.285 220.221C179.204 219.766 179.285 219.46 179.672 219.232C179.75 219.156 179.828 219.156 179.905 219.081C180.061 219.005 180.061 218.851 180.061 218.775C179.986 218.701 179.905 218.547 179.828 218.471H179.75C179.516 218.394 179.36 218.32 179.126 218.32C178.113 218.092 177.49 217.407 177.023 216.572C176.789 216.114 176.711 215.58 177.178 215.199C176.867 214.897 176.633 214.517 176.321 214.212C176.243 214.136 176.166 214.136 176.01 214.059C175.309 213.678 174.841 213.223 174.529 212.538C174.451 212.385 174.451 212.311 174.374 212.158C173.361 211.094 172.348 210.105 171.257 209.19C171.332 209.267 171.413 209.344 171.413 209.42C171.491 209.571 171.569 209.801 171.647 209.952C171.724 210.256 171.491 210.483 171.176 210.407C171.023 210.407 170.867 210.333 170.789 210.333C170.088 210.029 169.462 209.571 169.073 208.886C168.997 208.735 168.917 208.584 168.917 208.431C168.842 208.127 169.073 207.9 169.462 207.974C169.543 207.974 169.618 207.974 169.699 208.05L170.166 208.278C169.618 207.823 169.073 207.365 168.527 206.987C168.452 206.987 168.372 206.987 168.296 206.91C167.595 206.68 166.969 206.225 166.58 205.615C166.502 205.54 166.502 205.464 166.424 205.39C165.411 204.705 164.398 204.017 163.307 203.335C163.229 203.411 163.151 203.486 162.995 203.562C162.762 203.639 162.528 203.716 162.372 203.792C162.061 203.943 161.827 204.171 161.905 204.551C161.905 204.779 161.983 205.009 162.061 205.236C162.138 205.54 162.294 205.768 162.372 206.072C162.528 206.53 162.45 206.834 161.983 207.061C161.827 207.138 161.593 207.212 161.437 207.289C161.359 207.365 161.203 207.519 161.203 207.593C161.203 207.669 161.359 207.823 161.437 207.823C161.749 207.9 162.061 207.974 162.45 208.05C163.385 208.204 164.086 208.584 164.71 209.267C164.943 209.571 165.255 209.875 165.489 210.182C165.567 210.333 165.722 210.407 165.878 210.483C165.956 210.56 166.034 210.56 166.19 210.56C166.19 210.333 166.19 210.182 166.112 210.029C166.034 209.648 165.956 209.267 165.8 208.963C165.722 208.809 165.722 208.584 165.722 208.431C165.722 208.127 165.878 207.9 166.19 207.9H166.58C167.595 208.127 168.216 208.659 168.683 209.497C168.842 209.875 168.761 210.182 168.452 210.407C168.372 210.483 168.216 210.56 168.06 210.637C167.982 210.714 167.904 210.714 167.826 210.788C167.67 210.941 167.67 211.094 167.904 211.245C167.982 211.322 168.14 211.322 168.216 211.398C168.452 211.473 168.683 211.473 168.917 211.549C169.774 211.703 170.475 212.234 170.945 212.996C171.101 213.223 171.176 213.451 171.176 213.678C171.257 214.289 170.867 214.667 170.244 214.593C169.774 214.517 169.309 214.289 168.997 213.982C168.761 213.755 168.527 213.451 168.216 213.147C167.982 212.843 167.748 212.538 167.437 212.234C167.359 212.158 167.203 212.081 167.047 212.004C166.891 212.234 166.969 212.385 166.969 212.538C167.125 212.996 167.281 213.451 167.359 213.908C167.515 214.44 167.359 214.821 166.891 215.125C166.735 215.276 166.502 215.352 166.346 215.506C166.19 215.58 165.956 215.733 166.034 215.961C166.112 216.191 166.346 216.191 166.502 216.265C166.813 216.342 167.125 216.342 167.437 216.342C168.527 216.418 169.229 217.026 169.774 217.939C169.93 218.243 170.01 218.547 169.93 218.851C169.855 219.613 169.309 219.991 168.527 219.917C167.904 219.84 167.437 219.536 167.125 219.081C166.735 218.624 166.424 218.243 166.112 217.788C166.034 217.635 165.878 217.484 165.722 217.407C165.645 217.331 165.489 217.331 165.411 217.331C165.333 217.331 165.333 217.484 165.333 217.558C165.333 217.788 165.411 218.016 165.411 218.243C165.489 218.624 165.567 219.081 165.645 219.46C165.722 220.221 165.177 220.753 164.398 220.753C163.93 220.753 163.541 220.602 163.151 220.372C162.918 220.145 162.684 219.991 162.45 219.69L161.515 218.547C161.437 218.394 161.281 218.32 161.126 218.169C160.97 218.092 160.814 218.092 160.814 218.32V218.701C160.892 219.081 160.97 219.46 161.048 219.84C161.126 220.068 161.126 220.298 161.126 220.525C161.126 221.364 160.58 221.97 159.723 222.046C159.022 222.123 158.474 221.895 157.928 221.438C157.697 221.21 157.539 220.983 157.308 220.83C156.994 220.525 156.762 220.145 156.526 219.766C156.451 219.613 156.37 219.536 156.214 219.46C156.059 219.386 155.981 219.386 155.905 219.613V220.068C155.981 220.449 156.059 220.83 156.136 221.21C156.136 221.438 156.214 221.665 156.214 221.895C156.214 222.808 155.435 223.493 154.578 223.567C153.565 223.567 152.786 223.186 152.241 222.276C151.695 221.364 151.929 220.449 152.786 219.84C153.098 219.613 153.409 219.46 153.721 219.232C153.799 219.156 153.955 219.081 154.033 219.005C154.189 218.851 154.189 218.701 153.877 218.624C153.721 218.547 153.565 218.547 153.409 218.547H152.241C151.228 218.547 150.449 218.169 149.903 217.407C149.903 216.873 149.592 216.572 149.358 216.191C149.28 216.037 149.124 215.887 148.968 215.81C148.735 215.657 148.579 215.733 148.579 215.961V216.495C148.657 216.95 148.735 217.484 148.813 217.939C148.89 218.928 148.189 219.69 147.176 219.766C146.319 219.84 145.618 219.536 145.07 218.928C144.68 218.471 144.369 218.016 143.979 217.635C143.901 217.484 143.746 217.407 143.59 217.254C143.434 217.103 143.278 217.177 143.2 217.407V217.788C143.278 218.169 143.278 218.624 143.356 219.005C143.356 219.232 143.434 219.46 143.434 219.69C143.356 220.753 142.577 221.438 141.564 221.515C140.707 221.589 139.928 221.21 139.382 220.602C139.071 220.221 138.759 219.84 138.447 219.46C138.292 219.309 138.136 219.005 137.902 219.156C137.668 219.232 137.746 219.536 137.746 219.766C137.746 220.221 137.824 220.679 137.902 221.134C137.98 222.35 136.967 223.339 135.72 223.339C134.863 223.339 134.159 223.035 133.617 222.276C133.302 221.819 132.991 221.287 132.679 220.83C132.523 220.679 132.445 220.525 132.29 220.449C132.134 220.298 131.978 220.372 131.9 220.602V221.134C131.978 221.742 132.056 222.35 132.134 222.961C132.134 223.567 131.978 224.024 131.588 224.482C130.653 225.394 129.095 225.394 128.238 224.405C128.004 224.101 127.771 223.797 127.537 223.493C127.303 223.186 127.069 222.808 126.836 222.504C126.68 222.35 126.602 222.2 126.446 222.276C126.212 222.276 126.212 222.504 126.212 222.654V223.112C126.29 223.493 126.368 223.948 126.368 224.329C126.368 224.633 126.446 224.937 126.368 225.241C126.29 226.381 125.433 227.143 124.342 227.219C123.485 227.296 122.784 226.992 122.239 226.381C121.927 225.926 121.691 225.545 121.382 225.09C121.226 224.937 121.145 224.784 120.989 224.709C120.834 224.482 120.6 224.559 120.6 224.86V225.394C120.678 225.849 120.678 226.307 120.756 226.762C120.834 227.677 120.444 228.436 119.587 229.044C119.431 229.121 119.197 229.274 119.042 229.351C118.574 229.652 118.185 229.882 117.717 230.187C117.561 230.263 117.327 230.414 117.405 230.642C117.483 230.872 117.717 230.795 117.951 230.795C118.496 230.718 119.119 230.642 119.743 230.567C120.054 230.567 120.366 230.491 120.6 230.491C121.927 230.491 122.859 231.707 122.548 232.924C122.314 233.836 121.691 234.445 120.756 234.598C119.821 234.826 119.119 234.521 118.574 233.836C118.418 233.609 118.185 233.381 118.029 233.151C117.873 232.924 117.639 232.62 117.483 232.392C117.327 232.239 117.25 232.012 117.016 232.088C116.704 232.165 116.782 232.392 116.782 232.62C116.782 233.151 116.86 233.686 116.86 234.217C117.016 235.206 116.626 235.965 115.847 236.576C115.458 236.804 115.146 237.108 114.756 237.338C114.678 237.489 114.523 237.563 114.445 237.64C114.289 237.87 114.289 238.02 114.6 238.097H115.146C115.613 238.097 116.159 238.02 116.626 238.02C117.25 238.02 117.795 238.25 118.262 238.629C119.197 239.467 119.119 240.911 118.185 241.823C117.327 242.736 116.003 242.813 115.068 241.977C114.834 241.823 114.678 241.596 114.523 241.369C114.289 241.064 114.133 240.758 113.977 240.533C113.899 240.379 113.821 240.303 113.665 240.226C113.588 240.152 113.432 240.075 113.354 240.075C113.273 240.075 113.198 240.226 113.198 240.379V240.834V242.204C113.198 243.117 112.886 243.802 112.107 244.41C111.715 244.714 111.325 244.944 110.938 245.248C110.858 245.248 110.702 245.325 110.624 245.476C110.546 245.55 110.468 245.703 110.468 245.78C110.468 245.857 110.702 245.931 110.783 245.931H111.325C111.871 245.931 112.416 245.857 112.964 245.857C114.367 245.857 115.38 247.073 115.068 248.443C114.912 249.051 114.678 249.506 114.211 249.887C113.743 250.191 113.354 250.495 112.886 250.8C112.808 250.876 112.653 250.953 112.572 251.104C112.497 251.18 112.416 251.331 112.416 251.408C112.416 251.561 112.653 251.635 112.808 251.635C113.198 251.635 113.51 251.635 113.899 251.561C114.211 251.561 114.523 251.485 114.834 251.485C116.392 251.408 117.561 252.701 117.327 254.222C117.25 254.909 116.86 255.364 116.315 255.745C115.847 255.973 115.38 256.277 114.99 256.581C114.834 256.658 114.756 256.732 114.678 256.885C114.523 257.038 114.523 257.189 114.756 257.266C114.912 257.266 114.99 257.343 115.146 257.266C115.535 257.266 115.925 257.189 116.315 257.189H117.094C118.185 257.266 119.042 257.951 119.353 258.787C119.665 259.702 119.353 260.688 118.574 261.299C118.34 261.45 118.107 261.603 117.951 261.754C117.639 261.907 117.405 262.058 117.094 262.286C116.938 262.362 116.626 262.513 116.704 262.817C116.782 263.121 117.172 262.971 117.405 262.971C117.873 262.971 118.262 262.897 118.73 262.897C119.821 262.817 120.678 263.201 121.301 264.036C121.535 264.415 121.769 264.719 122.083 265.026C122.158 265.176 122.314 265.253 122.392 265.33C122.548 265.481 122.704 265.404 122.784 265.176C122.784 265.026 122.859 264.949 122.859 264.798C122.859 264.415 122.784 264.036 122.784 263.656C122.784 263.275 122.784 262.897 122.859 262.513C122.859 262.058 123.174 261.603 123.641 261.299C124.888 260.461 126.758 260.992 127.225 262.362C127.303 262.513 127.303 262.743 127.381 262.897C127.459 263.732 127.147 264.494 126.446 265.026C126.056 265.33 125.589 265.634 125.121 265.861C124.963 265.938 124.81 266.091 124.654 266.242C124.498 266.396 124.576 266.623 124.81 266.623C124.963 266.623 125.121 266.7 125.277 266.7C125.823 266.7 126.368 266.623 126.991 266.623C127.848 266.623 128.55 266.927 129.095 267.61C129.407 267.993 129.64 268.371 129.952 268.829C130.108 268.979 130.186 269.133 130.342 269.36C130.42 269.511 130.575 269.664 130.731 269.511C130.809 269.437 130.887 269.286 130.887 269.133V268.599C130.809 268.144 130.809 267.763 130.731 267.305C130.731 267.078 130.653 266.85 130.731 266.7C130.809 265.102 132.29 264.111 133.848 264.645C134.393 264.798 134.785 265.102 135.094 265.557L136.032 266.927C136.107 267.078 136.266 267.231 136.422 267.382C136.5 267.459 136.653 267.61 136.811 267.535C136.889 267.459 136.967 267.305 136.967 267.231V266.7C136.889 266.242 136.889 265.861 136.811 265.404C136.811 265.176 136.733 265.026 136.733 264.798C136.733 263.275 138.136 262.209 139.694 262.513C140.239 262.667 140.707 262.971 141.096 263.428C141.486 263.96 141.798 264.415 142.187 264.949C142.265 265.102 142.421 265.253 142.577 265.33C142.733 265.404 142.811 265.404 142.888 265.253C142.888 265.102 142.966 265.026 142.888 264.872C142.888 264.494 142.811 264.111 142.811 263.806C142.811 263.428 142.733 262.971 142.733 262.513C142.655 261.524 143.901 260.08 145.382 260.384C146.083 260.537 146.631 260.842 147.096 261.45C147.41 261.907 147.722 262.362 148.033 262.817C148.111 262.971 148.267 263.121 148.345 263.201C148.498 263.351 148.657 263.275 148.735 263.047V262.513C148.657 261.907 148.657 261.373 148.579 260.765C148.498 260.08 148.735 259.395 149.202 258.863C149.747 258.178 150.527 257.951 151.384 258.178C152.007 258.329 152.474 258.713 152.864 259.244C153.176 259.702 153.409 260.157 153.721 260.537C153.799 260.688 153.877 260.842 154.033 260.916C154.111 260.992 154.267 261.069 154.267 261.069C154.344 260.992 154.422 260.916 154.422 260.765V260.233C154.422 259.776 154.344 259.318 154.344 258.863C154.344 258.408 154.344 258.025 154.422 257.57C154.812 256.428 156.059 255.745 157.152 256.2C158.321 256.581 158.786 257.721 158.399 258.863C158.24 259.318 157.928 259.702 157.539 260.006C157.071 260.31 156.607 260.688 156.136 260.992C155.981 261.069 155.825 261.22 155.749 261.299C155.591 261.524 155.669 261.677 155.905 261.677H156.451C156.916 261.603 157.464 261.603 158.009 261.524C158.866 261.45 159.567 261.754 160.035 262.439C160.268 262.743 160.502 263.121 160.736 263.428C160.814 263.579 160.892 263.656 161.048 263.732C161.203 263.883 161.359 263.806 161.437 263.579C161.515 263.428 161.515 263.275 161.515 263.047V261.603C161.515 260.765 161.905 260.08 162.684 259.548C163.775 258.863 165.255 259.395 165.567 260.612C165.8 261.45 165.567 262.209 164.943 262.817C164.788 263.047 164.554 263.201 164.32 263.351C163.93 263.656 163.541 263.883 163.151 264.187C162.995 264.264 162.918 264.341 162.84 264.494C162.684 264.645 162.762 264.798 162.995 264.872H163.541C164.086 264.798 164.632 264.719 165.099 264.645C166.19 264.494 167.047 265.253 167.047 266.316C167.047 267.078 166.735 267.689 166.112 268.22C165.722 268.525 165.255 268.903 164.788 269.207C164.632 269.286 164.476 269.437 164.398 269.511C164.32 269.59 164.242 269.741 164.32 269.818C164.32 269.894 164.476 269.969 164.554 269.969C164.71 269.969 164.943 269.969 165.099 269.894C165.567 269.818 166.112 269.664 166.58 269.664C167.595 269.511 168.372 270.196 168.372 271.188C168.372 271.793 168.14 272.402 167.67 272.785C167.437 273.013 167.125 273.24 166.813 273.468C166.502 273.695 166.19 273.925 165.878 274.153C165.722 274.229 165.567 274.383 165.645 274.533C165.722 274.687 165.956 274.687 166.112 274.61C166.424 274.533 166.657 274.533 166.969 274.457C167.281 274.383 167.514 274.303 167.826 274.303C168.917 274.153 169.618 274.914 169.384 275.98C169.229 276.586 168.917 277.12 168.372 277.498C167.982 277.805 167.595 278.109 167.203 278.413C167.047 278.487 166.969 278.641 166.813 278.791C166.657 278.945 166.735 279.096 166.969 279.096H167.359C167.748 279.021 168.14 278.945 168.527 278.871C168.761 278.791 168.917 278.791 169.153 278.791C169.774 278.791 170.166 279.175 170.166 279.781C170.166 280.238 170.088 280.619 169.855 280.923C169.618 281.15 169.462 281.455 169.153 281.608C168.842 281.912 168.452 282.216 168.06 282.444C167.904 282.52 167.826 282.674 167.748 282.748C167.67 282.825 167.67 282.901 167.67 282.975C167.748 283.052 167.826 283.129 167.904 283.129C168.14 283.129 168.296 283.052 168.527 283.052C168.917 282.975 169.384 282.825 169.774 282.748C170.556 282.674 171.023 283.129 170.789 283.967C170.631 284.499 170.319 284.877 169.93 285.26C169.618 285.485 169.309 285.715 168.997 285.943C168.842 286.096 168.605 286.247 168.452 286.4C168.372 286.474 168.372 286.551 168.296 286.704H168.842C169.153 286.628 169.462 286.551 169.774 286.474C170.01 286.4 170.244 286.4 170.475 286.4C170.945 286.4 171.176 286.704 171.101 287.083C171.023 287.389 170.867 287.693 170.712 287.921C170.556 288.148 170.244 288.376 170.01 288.606C169.699 288.91 169.309 289.138 168.997 289.442C168.917 289.518 168.842 289.669 168.761 289.823C168.761 289.823 168.761 289.899 168.842 289.899H169.229C169.462 289.823 169.699 289.746 169.93 289.669C170.088 289.595 170.319 289.518 170.475 289.518C170.867 289.442 171.023 289.518 171.257 289.899V289.973C171.647 289.669 172.036 289.291 172.348 288.987C172.582 288.376 173.049 287.844 173.594 287.466C173.75 287.313 173.984 287.236 174.218 287.162H174.296C175.231 286.247 176.088 285.26 176.945 284.271C176.711 284.499 176.633 284.499 176.555 284.573Z" fill="white"/>
<path fill-rule="evenodd" clip-rule="evenodd" d="M121.926 196.64C122.004 196.563 122.004 196.413 122.082 196.336C121.614 196.487 121.147 196.563 120.679 196.64C120.913 196.717 121.069 196.794 121.303 196.944C121.614 197.172 121.848 197.098 121.926 196.64Z" fill="white"/>
<path fill-rule="evenodd" clip-rule="evenodd" d="M115.847 198.085C116.158 198.162 116.314 198.466 116.08 198.694C115.847 198.924 115.691 199.074 115.457 199.225C115.145 199.379 114.834 199.606 114.522 199.759C114.444 199.91 114.288 199.987 114.288 200.214C114.444 200.368 114.6 200.291 114.756 200.291C115.067 200.214 115.379 200.14 115.691 200.14C116.392 199.987 116.937 200.214 117.405 200.748C117.561 200.899 117.639 200.976 117.717 201.127C117.794 201.203 117.953 201.357 118.109 201.203C118.262 201.127 118.34 200.976 118.34 200.899V200.291C118.262 199.683 118.574 199.225 119.119 198.924C119.431 198.77 119.742 198.617 119.976 198.466C120.132 198.389 120.212 198.239 120.288 198.162V198.085C120.132 198.085 120.057 198.009 119.901 198.009C119.667 198.009 119.431 198.009 119.199 198.085C118.885 198.085 118.498 198.162 118.184 198.085C117.953 198.085 117.639 198.085 117.561 197.781V197.554C117.015 197.704 116.392 197.858 115.847 198.085Z" fill="white"/>
<path fill-rule="evenodd" clip-rule="evenodd" d="M148.968 200.823C148.734 200.9 148.422 200.977 148.111 200.977C147.487 200.9 146.864 200.747 146.318 200.368C146.241 200.368 146.241 200.292 146.163 200.292C145.929 200.064 145.773 199.834 145.773 199.53C145.851 199.226 146.163 199.073 146.396 198.998C147.253 198.771 148.578 199.149 149.123 199.834C149.591 200.215 149.513 200.67 148.968 200.823ZM146.864 204.78C146.552 205.084 146.241 205.237 145.851 205.237C145.15 205.311 144.449 205.084 143.825 204.703C143.667 204.626 143.511 204.476 143.436 204.322C143.046 203.865 143.124 203.333 143.592 202.952C143.903 202.648 144.293 202.574 144.604 202.574C145.384 202.574 146.007 202.725 146.552 203.182L147.02 203.64C147.253 204.018 147.176 204.399 146.864 204.78ZM141.407 206.147C141.096 206.301 140.787 206.301 140.472 206.377C139.93 206.301 139.382 206.147 138.914 205.843C138.447 205.539 138.135 205.161 138.213 204.626C138.369 204.018 138.758 203.714 139.304 203.487C139.382 203.487 139.537 203.41 139.615 203.41C140.317 203.41 140.94 203.563 141.488 203.865C141.953 204.095 142.264 204.476 142.264 205.007C142.189 205.616 141.877 205.92 141.407 206.147ZM136.81 206.909C136.343 207.44 135.798 207.671 135.096 207.671C134.551 207.671 133.928 207.517 133.46 207.136C132.759 206.605 132.681 205.692 133.46 205.161C134.083 204.703 134.785 204.55 135.486 204.703C135.875 204.78 136.265 204.931 136.655 205.161C137.2 205.616 137.278 206.301 136.81 206.909ZM131.59 208.202C131.276 208.81 130.499 209.191 129.486 209.191C129.094 209.191 128.627 209.038 128.159 208.734C127.614 208.279 127.458 207.671 127.848 207.06C127.926 206.986 128.003 206.835 128.081 206.758C128.861 205.996 130.344 205.843 131.201 206.454C131.902 206.909 132.058 207.517 131.59 208.202ZM126.367 203.333C127.069 202.497 128.627 202.344 129.562 202.952C130.107 203.333 130.263 203.865 129.873 204.399C129.562 204.856 129.094 205.084 128.549 205.237C128.315 205.311 128.081 205.311 127.848 205.311C127.38 205.311 126.913 205.161 126.523 204.931C125.9 204.55 125.822 203.865 126.367 203.333ZM126.211 209.876C125.744 210.561 125.043 210.865 124.342 210.939C123.796 210.939 123.329 210.865 122.939 210.561C122.238 210.104 122.082 209.495 122.472 208.81C122.705 208.506 122.939 208.202 123.329 208.051C124.108 207.671 124.887 207.594 125.666 207.975C126.523 208.279 126.757 209.115 126.211 209.876ZM122.55 215.808C122.238 216.57 121.303 217.178 120.29 217.178C119.976 217.178 119.586 217.102 119.355 216.951C118.654 216.493 118.417 215.732 118.729 215.047C119.199 213.83 120.757 213.299 121.848 213.907C122.55 214.288 122.861 215.047 122.55 215.808ZM118.184 212.69C117.953 212.69 117.797 212.614 117.56 212.463C117.015 212.159 116.859 211.701 117.015 211.093C117.251 210.254 117.797 209.723 118.654 209.495C118.885 209.419 119.119 209.419 119.43 209.342C119.667 209.419 119.976 209.419 120.29 209.572C120.833 209.8 121.147 210.254 121.069 210.865C121.069 211.246 120.913 211.627 120.602 211.852C119.976 212.69 119.119 212.918 118.184 212.69ZM117.171 217.71C116.859 218.622 115.924 219.307 114.833 219.384C114.6 219.307 114.288 219.233 113.976 219.157C113.197 218.852 112.886 218.167 113.119 217.406C113.431 216.113 114.756 215.353 116.002 215.658C117.015 215.885 117.483 216.721 117.171 217.71ZM112.73 214.745C112.029 214.592 111.639 213.983 111.795 213.299C112.029 211.929 113.665 211.016 114.911 211.55C115.613 211.852 115.924 212.386 115.69 213.148C115.457 214.06 114.366 214.822 113.353 214.822C113.197 214.822 112.963 214.822 112.73 214.745ZM129.873 198.922C130.655 198.313 132.058 198.237 132.915 198.771C133.382 199.149 133.46 199.607 132.993 200.064C132.603 200.445 132.058 200.519 131.512 200.596H131.276C130.808 200.596 130.344 200.519 129.951 200.215C129.406 199.834 129.406 199.379 129.873 198.922ZM134.863 201.889C135.252 202.267 135.252 202.725 134.863 203.182C134.395 203.714 133.772 203.865 133.304 203.865C132.603 203.865 132.058 203.791 131.665 203.487C131.045 203.029 130.964 202.421 131.512 201.889C132.291 201.051 134.083 201.051 134.863 201.889ZM135.018 197.705C135.33 197.552 135.642 197.475 136.187 197.475C136.655 197.475 137.122 197.552 137.512 197.782C137.667 197.856 137.823 197.933 137.901 198.009C138.213 198.313 138.213 198.618 137.901 198.922C137.745 199.073 137.512 199.226 137.278 199.303C136.499 199.607 135.72 199.53 134.94 199.149C134.707 198.998 134.395 198.771 134.395 198.467C134.473 198.086 134.707 197.856 135.018 197.705ZM139.849 202.117C139.459 202.497 138.992 202.648 138.524 202.648C137.823 202.648 137.278 202.497 136.81 202.193C136.031 201.736 136.109 200.9 136.888 200.445C137.745 199.988 139.148 200.215 139.849 200.823C140.239 201.204 140.239 201.736 139.849 202.117ZM139.849 196.944C140.083 196.869 140.394 196.869 140.631 196.793C141.176 196.793 141.644 196.944 142.109 197.174C142.264 197.25 142.42 197.324 142.498 197.401C142.81 197.705 142.81 198.009 142.498 198.237C142.345 198.39 142.109 198.467 141.877 198.541C141.096 198.694 140.317 198.618 139.693 198.237C139.382 198.086 139.148 197.856 139.148 197.475C139.226 197.174 139.537 197.02 139.849 196.944ZM144.368 199.911C144.449 199.911 144.449 199.988 144.526 199.988C145.15 200.445 145.072 201.204 144.368 201.508C144.059 201.662 143.747 201.662 143.436 201.736C142.81 201.662 142.264 201.508 141.719 201.204C141.644 201.127 141.488 201.051 141.407 200.977C141.018 200.596 141.096 199.988 141.563 199.683C141.797 199.53 142.033 199.453 142.345 199.453C143.046 199.379 143.747 199.53 144.368 199.911ZM144.368 196.489C145.306 196.335 146.085 196.563 146.864 197.097C147.02 197.25 147.176 197.401 147.176 197.629C147.098 197.856 146.942 198.009 146.708 198.086C146.474 198.16 146.241 198.16 146.007 198.16C145.306 198.16 144.76 197.933 144.137 197.629C143.903 197.475 143.667 197.324 143.747 197.02C143.825 196.639 144.137 196.489 144.368 196.489ZM154.499 198.848C153.409 198.39 152.24 198.009 151.149 197.705C151.071 197.782 150.915 197.856 150.76 197.856H150.448C149.747 197.782 149.123 197.629 148.5 197.25C148.344 197.174 148.111 197.02 148.111 196.793C145.695 196.184 143.202 195.727 140.706 195.423C140.706 195.653 140.55 195.878 140.317 195.954C140.005 196.031 139.693 196.108 139.382 196.108C138.602 196.184 137.901 195.954 137.2 195.576C137.122 195.423 136.966 195.346 136.732 195.272C136.421 195.119 136.265 195.272 136.265 195.576V195.804C136.265 196.335 136.187 196.563 135.642 196.716C134.863 196.944 134.005 196.944 133.226 196.563C132.915 196.412 132.681 196.259 132.369 196.108C132.213 196.031 131.977 195.804 131.746 195.954C131.512 196.031 131.59 196.335 131.59 196.489C131.59 197.02 131.356 197.324 130.889 197.475C129.873 197.933 128.941 197.933 128.003 197.25C127.926 197.174 127.848 197.097 127.692 197.097C127.146 196.716 126.913 196.869 126.913 197.475C126.913 198.086 126.601 198.467 126.056 198.771C125.744 198.922 125.432 199.073 125.199 199.226C125.043 199.303 124.887 199.379 124.887 199.53C125.121 199.683 125.121 199.683 125.432 199.683C125.9 199.683 126.367 199.607 126.835 199.607C127.224 199.607 127.614 199.683 128.003 199.911C128.471 200.215 128.549 200.67 128.159 201.051C127.926 201.355 127.614 201.585 127.302 201.736C126.211 202.117 125.277 201.966 124.419 201.204C124.264 201.051 124.108 200.9 123.952 200.823C123.718 200.67 123.484 200.747 123.407 201.051C123.407 201.204 123.329 201.355 123.407 201.585C123.407 202.267 123.173 202.802 122.55 203.106C122.238 203.259 121.848 203.41 121.615 203.563C121.459 203.64 121.303 203.791 121.225 203.865C121.069 204.018 121.147 204.172 121.303 204.172H122.004C122.394 204.172 122.783 204.095 123.173 204.095C123.562 204.095 123.952 204.172 124.264 204.399C124.887 204.856 124.965 205.462 124.497 205.996C123.64 207.136 121.77 207.29 120.833 206.224C120.677 205.996 120.524 205.843 120.368 205.692C120.212 205.616 120.056 205.462 119.9 205.539C119.745 205.616 119.667 205.769 119.667 205.92C119.667 206.224 119.667 206.454 119.586 206.758C119.586 208.432 117.483 209.191 116.314 208.583C116.002 208.432 115.846 208.202 115.613 207.975C115.379 207.821 115.301 207.594 115.145 207.44C114.911 207.29 114.678 207.366 114.6 207.594C114.6 207.745 114.522 207.821 114.522 207.975C114.522 208.202 114.444 208.432 114.444 208.657C114.366 209.876 113.353 210.561 112.496 210.712C111.717 210.865 111.016 210.712 110.548 210.03C110.392 209.876 110.236 209.649 110.081 209.495C109.847 209.268 109.613 209.342 109.535 209.649C109.457 209.876 109.457 210.104 109.457 210.408C109.457 211.32 109.068 211.929 108.286 212.463C107.899 212.69 107.51 212.994 107.12 213.299C107.039 213.375 106.884 213.449 106.808 213.603C106.728 213.756 106.728 213.83 106.964 213.83C107.12 213.83 107.273 213.83 107.51 213.756C107.977 213.679 108.522 213.526 108.987 213.449C110.081 213.375 110.782 214.288 110.392 215.353C110.236 215.808 110.003 216.113 109.613 216.419C109.143 216.721 108.756 217.025 108.286 217.329C108.13 217.482 108.055 217.559 107.899 217.71C107.821 217.71 107.821 217.863 107.821 217.94C107.821 218.017 107.977 218.091 108.055 218.091C108.286 218.091 108.442 218.091 108.678 218.017C109.224 217.94 109.691 217.863 110.236 217.787C111.405 217.71 112.029 218.622 111.717 219.688C111.561 220.22 111.249 220.601 110.86 220.905C110.47 221.211 110.003 221.513 109.613 221.817C109.457 221.894 109.302 222.047 109.143 222.121C109.068 222.275 108.912 222.351 108.987 222.502C109.068 222.656 109.224 222.656 109.379 222.656C109.613 222.656 109.847 222.579 110.081 222.579C110.47 222.502 110.86 222.428 111.249 222.428C112.106 222.275 112.73 222.579 113.197 223.264C113.431 223.645 113.665 224.025 113.898 224.406C113.976 224.557 114.054 224.708 114.21 224.861C114.288 224.938 114.444 225.089 114.522 225.089C114.756 225.089 114.756 224.861 114.756 224.708V224.253C114.756 223.872 114.678 223.491 114.678 223.11V222.579C114.678 221.513 115.457 220.601 116.47 220.296C117.405 219.992 118.262 220.296 118.885 221.286C119.119 221.666 119.355 222.047 119.586 222.428C119.667 222.502 119.745 222.656 119.9 222.732C119.976 222.809 120.132 222.883 120.132 222.883C120.212 222.809 120.29 222.732 120.29 222.579V221.894C120.29 221.436 120.212 220.981 120.132 220.524C120.056 219.992 120.212 219.461 120.524 219.003C121.225 218.091 123.017 217.482 124.186 219.003C124.264 219.157 124.419 219.307 124.497 219.461C124.809 219.916 125.043 220.22 125.354 220.601C125.432 220.677 125.51 220.754 125.588 220.905C125.744 221.058 125.978 220.981 125.978 220.754V220.22C125.978 219.688 125.9 219.157 125.822 218.622C125.744 217.787 126.056 217.102 126.757 216.644C126.913 216.57 127.069 216.493 127.224 216.419C127.536 216.189 127.848 216.038 128.159 215.885C128.315 215.732 128.549 215.658 128.705 215.504C128.861 215.428 129.094 215.353 129.016 215.123C128.941 214.896 128.705 214.973 128.471 214.973C128.315 214.973 128.159 214.973 128.003 215.047C127.458 215.123 126.913 215.2 126.445 215.277C125.978 215.353 125.51 215.277 125.121 215.123C123.874 214.745 123.562 213.449 124.419 212.537C125.354 211.474 126.991 211.474 127.926 212.386C128.159 212.614 128.315 212.844 128.471 213.071C128.549 213.224 128.705 213.375 128.861 213.449C128.941 213.526 129.094 213.603 129.25 213.603C129.406 213.603 129.406 213.375 129.486 213.224V212.844V212.082C129.486 211.169 129.951 210.485 130.889 210.18C131.821 209.876 132.681 210.03 133.46 210.789C133.694 211.016 133.85 211.246 134.083 211.474C134.161 211.627 134.317 211.701 134.473 211.852C134.707 212.005 134.863 211.929 134.94 211.627V211.246C134.94 211.016 134.863 210.712 134.863 210.485C134.863 209.495 135.486 208.734 136.499 208.583C137.434 208.432 138.213 208.657 138.836 209.342C139.07 209.572 139.304 209.8 139.537 210.104C139.615 210.18 139.693 210.331 139.849 210.408C140.083 210.635 140.317 210.485 140.317 210.18V209.8C140.317 209.572 140.239 209.342 140.239 209.115C140.161 208.202 140.55 207.594 141.488 207.366C142.42 207.136 143.28 207.366 143.981 207.975C144.293 208.279 144.526 208.583 144.838 208.887C144.994 209.038 145.15 209.268 145.384 209.191C145.617 209.115 145.539 208.81 145.539 208.583C145.539 208.279 145.461 207.898 145.461 207.594C145.461 206.909 145.929 206.377 146.63 206.301C147.565 206.147 148.422 206.454 149.045 207.06C149.747 207.745 149.591 208.583 148.812 209.115C148.578 209.268 148.266 209.419 148.033 209.572C147.877 209.649 147.721 209.723 147.643 209.876C147.487 210.03 147.487 210.18 147.721 210.254C147.877 210.331 148.033 210.331 148.266 210.331H149.357C150.136 210.331 150.76 210.635 151.227 211.169C151.539 211.474 151.85 211.852 152.162 212.159C152.24 212.233 152.396 212.309 152.476 212.386C152.63 212.463 152.785 212.386 152.785 212.233V211.778C152.707 211.474 152.707 211.169 152.63 210.789C152.552 210.104 152.785 209.723 153.253 209.419C153.487 209.268 153.723 209.191 153.954 209.038C154.11 208.964 154.19 208.887 154.344 208.81C154.499 208.657 154.499 208.506 154.268 208.432C154.11 208.355 153.954 208.355 153.723 208.355C153.333 208.279 152.941 208.279 152.552 208.279C151.772 208.202 151.071 207.821 150.604 207.213C150.136 206.605 150.292 205.92 150.915 205.539C151.071 205.462 151.227 205.388 151.383 205.311C151.539 205.237 151.619 205.161 151.772 205.084C151.928 205.007 152.084 204.931 152.006 204.703C151.928 204.626 151.772 204.55 151.695 204.476C151.539 204.399 151.305 204.399 151.071 204.399C150.76 204.399 150.448 204.322 150.136 204.322C149.591 204.246 149.123 204.095 148.656 203.714C148.5 203.64 148.422 203.487 148.266 203.333C147.877 202.802 147.955 202.193 148.578 201.966C148.812 201.889 149.123 201.812 149.357 201.812C150.058 201.812 150.76 202.042 151.305 202.497C151.539 202.725 151.85 202.952 152.084 203.106C152.162 203.182 152.32 203.259 152.476 203.333C152.707 203.41 152.785 203.333 152.785 203.106C152.785 202.952 152.707 202.802 152.707 202.648C152.476 201.812 152.552 201.585 153.409 201.281L153.879 201.051C154.035 200.977 154.035 200.823 153.879 200.747C153.798 200.67 153.642 200.67 153.487 200.596C153.178 200.519 152.863 200.519 152.552 200.445C152.006 200.368 151.461 200.215 150.915 199.834C150.604 199.607 150.292 199.379 150.37 198.922C150.448 198.618 150.838 198.467 151.383 198.541C152.084 198.618 152.785 198.848 153.333 199.303C153.567 199.453 153.723 199.607 153.879 199.758C153.954 199.834 154.035 199.911 154.19 199.911C154.424 199.988 154.499 199.911 154.499 199.683C154.499 199.53 154.424 199.453 154.424 199.303C154.344 199.149 154.424 198.922 154.499 198.848Z" fill="white"/>
<path fill-rule="evenodd" clip-rule="evenodd" d="M116.237 297.277C115.926 296.973 115.692 296.669 115.77 296.211C115.926 295.754 116.315 295.68 116.783 295.606H117.016C117.795 295.68 118.497 295.907 119.12 296.441C119.587 296.899 119.51 297.505 118.886 297.809C118.575 297.962 118.263 298.039 117.951 297.962C117.328 297.962 116.705 297.735 116.237 297.277ZM114.832 297.962C114.679 298.343 114.367 298.343 113.975 298.343C113.199 298.343 112.497 298.039 111.952 297.505C111.716 297.277 111.482 296.973 111.638 296.592C111.796 296.211 112.183 296.211 112.497 296.211C113.274 296.211 113.975 296.516 114.523 297.124C114.832 297.277 114.991 297.581 114.832 297.962ZM109.222 293.929C109.144 293.855 109.066 293.704 109.066 293.551C108.911 293.093 109.144 292.712 109.612 292.559C109.768 292.485 109.924 292.485 110.001 292.485C111.014 292.559 111.796 292.942 112.341 293.704C112.573 294.008 112.653 294.31 112.497 294.614C112.341 294.918 112.027 295.072 111.716 295.072C110.703 295.148 109.846 294.767 109.222 293.929ZM113.43 292.559C113.666 292.027 114.131 291.953 114.679 291.953H114.757C115.536 292.027 116.237 292.258 116.783 292.863C116.86 293.017 117.016 293.093 117.094 293.247C117.406 293.778 117.172 294.31 116.627 294.614C116.471 294.691 116.237 294.767 116.003 294.767C115.146 294.767 114.445 294.54 113.9 293.929C113.43 293.474 113.199 293.017 113.43 292.559ZM121.38 299.636C121.613 299.787 121.691 300.015 121.613 300.319C121.535 300.625 121.302 300.776 120.99 300.776C120.834 300.776 120.678 300.85 120.522 300.85C119.743 300.85 119.12 300.625 118.497 300.245C118.185 300.015 117.951 299.787 118.029 299.406C118.107 299.028 118.497 298.875 118.808 298.875C119.821 298.801 120.6 299.102 121.38 299.636ZM107.82 295.302H107.43C106.573 295.148 105.872 294.767 105.405 294.082C105.405 294.082 105.405 294.008 105.327 294.008C105.171 293.778 105.093 293.474 105.249 293.247C105.405 293.017 105.638 292.942 106.028 292.942C106.885 293.017 107.586 293.474 108.132 294.236C108.209 294.31 108.209 294.461 108.287 294.54C108.443 294.995 108.209 295.302 107.82 295.302ZM102.755 290.356C102.6 290.052 102.522 289.748 102.755 289.444C102.987 289.137 103.301 289.137 103.69 289.137C104.547 289.29 105.249 289.748 105.716 290.43C105.794 290.583 105.872 290.734 105.95 290.962C106.106 291.573 105.716 291.953 105.015 291.953C104.002 291.8 103.223 291.345 102.755 290.356ZM101.428 292.027C101.353 292.027 101.195 291.953 101.039 291.953C100.338 291.723 99.7921 291.266 99.4051 290.66C99.1688 290.356 99.0909 290.052 99.3246 289.748C99.561 289.444 99.9505 289.518 100.262 289.594C101.039 289.822 101.584 290.279 102.054 290.888C102.132 291.041 102.21 291.192 102.285 291.419C102.21 291.8 101.976 292.027 101.428 292.027ZM98.8571 288.378C97.9222 288.224 96.9093 287.314 96.6755 286.399C96.5197 285.791 96.9093 285.334 97.4547 285.487C98.4676 285.717 99.1688 286.249 99.561 287.161C99.561 287.235 99.6363 287.314 99.6363 287.465V287.619C99.6363 288.15 99.3246 288.454 98.8571 288.378ZM96.2081 284.345C95.351 284.12 94.416 283.128 94.2602 282.292C94.1044 281.531 94.6498 281.076 95.4289 281.303C96.3639 281.607 97.2989 282.673 97.2989 283.585C97.2209 284.12 96.8314 284.498 96.2081 284.345ZM95.6627 288.378C94.6498 288.071 93.9486 287.389 93.6369 286.399C93.4811 285.942 93.7927 285.717 94.1823 285.791C94.9614 285.942 96.1302 287.008 96.2081 287.767V287.92C96.286 288.301 96.0522 288.529 95.6627 288.378ZM93.0915 284.572C92.2344 284.194 91.5332 283.585 91.2969 282.673C91.2969 282.596 91.2969 282.443 91.2216 282.369C91.2216 281.761 91.5332 281.531 92.0786 281.761C93.0136 282.139 93.559 282.747 93.8706 283.736C93.8706 283.813 93.9486 283.966 93.8706 284.12C93.8706 284.498 93.559 284.725 93.0915 284.572ZM116.627 301.08H116.315C117.718 301.538 119.12 301.916 120.522 302.297V302.144C120.6 301.916 120.756 301.842 120.912 301.765C121.146 301.691 121.302 301.691 121.535 301.691C122.159 301.691 122.785 301.842 123.327 302.144C123.486 302.223 123.642 302.374 123.717 302.448C123.873 302.601 123.873 302.754 123.797 302.905C125.119 303.135 126.447 303.363 127.771 303.514C127.849 303.439 128.005 303.439 128.083 303.363C128.239 303.289 128.239 303.059 128.005 303.059C127.849 302.982 127.615 302.982 127.381 302.982C126.914 302.905 126.447 302.905 125.976 302.831C125.667 302.754 125.275 302.601 124.964 302.374C124.574 302.144 124.654 301.691 125.044 301.461C125.119 301.385 125.275 301.308 125.434 301.308C125.589 301.234 125.745 301.157 125.901 301.157C126.057 301.08 126.291 301.004 126.291 300.776C126.135 300.546 125.901 300.546 125.745 300.546C125.434 300.546 125.119 300.546 124.888 300.472C124.499 300.398 124.029 300.319 123.642 300.245C123.405 300.168 123.096 300.015 122.94 299.864C122.392 299.406 122.47 298.875 123.096 298.57C123.327 298.417 123.561 298.343 123.797 298.266C123.953 298.19 124.029 298.113 124.187 298.039C124.343 297.962 124.262 297.809 124.106 297.735C124.029 297.656 123.873 297.655 123.797 297.655C123.486 297.655 123.172 297.581 122.86 297.581C122.548 297.505 122.159 297.505 121.847 297.431C121.38 297.351 120.99 297.124 120.6 296.746C120.055 296.211 120.133 295.606 120.756 295.222C120.99 295.072 121.224 294.995 121.457 294.844C121.613 294.767 121.769 294.691 121.847 294.614C122.081 294.461 122.003 294.31 121.769 294.236C121.613 294.157 121.457 294.157 121.224 294.157C120.834 294.157 120.367 294.082 119.977 294.082C119.354 293.855 118.73 293.551 118.263 292.942C117.718 292.258 118.029 291.266 118.886 291.041C119.042 290.962 119.198 290.962 119.354 290.962C120.211 290.888 120.912 291.192 121.535 291.723C121.847 291.953 122.081 292.258 122.392 292.559C122.47 292.638 122.626 292.789 122.785 292.789C122.94 292.863 123.096 292.789 123.172 292.638V292.258C123.172 292.027 123.096 291.8 123.096 291.573C123.016 290.888 123.249 290.356 123.873 290.052C124.187 289.898 124.499 289.748 124.81 289.518C124.964 289.444 125.2 289.364 125.119 289.063C125.044 288.833 124.81 288.833 124.574 288.833H123.249C122.392 288.833 121.691 288.529 121.068 287.92C120.834 287.619 120.522 287.389 120.289 287.084C120.211 287.008 120.133 286.857 119.977 286.857C119.743 286.704 119.587 286.78 119.587 287.008V287.465C119.665 287.767 119.665 288.071 119.743 288.454C119.821 289.29 119.198 289.975 118.341 289.975C117.562 289.975 116.86 289.748 116.237 289.216C115.926 288.912 115.614 288.529 115.302 288.224C115.146 288.071 114.991 287.846 114.832 287.997C114.601 288.071 114.679 288.378 114.679 288.529C114.757 288.833 114.832 289.216 114.832 289.518C114.913 290.279 114.445 290.734 113.744 290.813C112.965 290.888 112.261 290.66 111.716 290.126C111.482 289.898 111.326 289.748 111.095 289.518C110.859 289.216 110.549 288.912 110.313 288.605C110.235 288.529 110.157 288.454 110.001 288.378C109.846 288.301 109.69 288.378 109.69 288.529C109.69 288.682 109.69 288.833 109.768 288.986C109.846 289.444 110.001 289.822 110.079 290.279C110.235 290.888 109.846 291.345 109.222 291.419H108.677C108.054 291.266 107.586 291.041 107.119 290.583C106.963 290.356 106.807 290.126 106.729 289.898C106.495 289.444 106.651 288.986 107.197 288.759C107.352 288.682 107.586 288.529 107.742 288.454C107.898 288.378 108.054 288.301 108.209 288.224C108.287 288.15 108.443 287.997 108.443 287.92C108.443 287.693 108.209 287.693 108.054 287.693C107.976 287.693 107.82 287.619 107.742 287.619C107.508 287.619 107.352 287.539 107.119 287.539C105.872 287.539 104.937 287.008 104.236 286.021C104.002 285.717 103.69 285.41 103.457 285.106C103.379 284.955 103.223 284.876 102.987 284.955V285.41C103.067 285.638 103.142 285.942 103.223 286.169C103.301 286.474 103.457 286.857 103.457 287.161C103.535 287.92 103.067 288.301 102.285 288.15C101.428 287.997 100.727 287.465 100.338 286.704C100.262 286.553 100.182 286.399 100.182 286.249C100.106 285.791 100.182 285.41 100.571 285.183C100.727 285.106 100.883 284.955 101.039 284.876C101.195 284.725 101.428 284.651 101.428 284.424C101.353 284.12 101.119 284.12 100.883 284.12C100.571 284.04 100.262 284.04 100.026 283.966C99.1688 283.813 98.4676 283.358 98.0001 282.596C97.4547 281.761 97.6884 281.076 98.4676 280.467C98.7039 280.314 98.8571 280.163 99.013 280.01C99.2467 279.78 99.2467 279.552 98.8571 279.478C98.7039 279.478 98.4676 279.402 98.2338 279.402C97.143 279.402 96.3639 278.87 95.7406 278.034C95.5848 277.804 95.351 277.577 95.1952 277.272C95.1173 277.119 94.9614 276.968 94.8056 277.042C94.6498 277.119 94.6498 277.347 94.7277 277.423C94.8056 277.804 94.8835 278.108 94.8835 278.487C94.8835 278.793 94.9614 279.097 94.8835 279.327C94.8056 279.78 94.494 279.933 94.0265 279.933C93.6369 279.859 93.3252 279.78 93.0915 279.478C92.8578 279.248 92.7019 279.097 92.4682 278.87C92.2344 278.64 92.0786 278.336 91.8449 278.108C91.767 277.955 91.6111 277.804 91.3774 277.881C91.2969 278.108 91.2969 278.336 91.3774 278.566C91.4553 278.944 91.5332 279.327 91.5332 279.706C91.5332 280.314 91.1436 280.618 90.5203 280.314C90.4398 280.314 90.3645 280.237 90.2866 280.237C89.6633 279.78 89.1932 279.174 88.9621 278.487C88.8036 277.955 88.9621 277.5 89.349 277.196C89.5075 277.119 89.5828 277.042 89.6633 276.889C89.8191 276.664 89.7386 276.511 89.5828 276.437C89.4295 276.358 89.2737 276.358 89.1179 276.283C88.2608 276.207 87.7154 275.749 87.3233 275.067C87.0895 274.686 86.8558 274.305 86.622 274.001C86.5441 273.848 86.4662 273.694 86.1546 273.694C86.1546 273.848 86.0766 274.001 86.1546 274.152C86.2325 274.535 86.3104 274.839 86.3883 275.218C86.4662 275.445 86.4662 275.675 86.5441 275.979C86.5441 276.207 86.5441 276.358 86.3104 276.511C86.0766 276.664 85.9208 276.511 85.765 276.437C85.6092 276.358 85.5312 276.207 85.4533 276.133L85.3754 276.053C85.765 276.815 86.2325 277.5 86.7 278.262C86.7779 278.108 87.0116 278.034 87.2453 278.108C87.3233 278.108 87.4012 278.182 87.4791 278.182C88.1024 278.64 88.5725 279.248 88.7257 280.084V280.237C88.7257 280.541 88.5725 280.695 88.4167 280.771C88.7257 281.229 89.1179 281.681 89.4295 282.139C89.5075 282.139 89.5828 282.216 89.6633 282.216C90.2087 282.596 90.6762 283.128 90.9878 283.662C91.0657 283.813 91.0657 283.966 91.1437 284.12C92.7798 286.095 94.5719 287.92 96.5197 289.594C96.6755 289.518 96.8314 289.594 96.9872 289.668C97.6884 289.975 98.3117 290.43 98.7039 291.041C98.7039 291.115 98.7792 291.266 98.7792 291.419V291.573C99.7921 292.411 100.808 293.17 101.898 293.929C101.898 293.855 101.82 293.778 101.82 293.704C101.665 293.397 101.82 293.17 102.21 293.093C102.366 293.093 102.522 293.093 102.678 293.17C103.379 293.397 104.002 293.778 104.47 294.387C104.547 294.461 104.547 294.54 104.625 294.614C104.781 294.995 104.625 295.302 104.08 295.302C105.638 296.288 107.197 297.203 108.911 297.962C108.599 297.809 108.365 297.581 108.054 297.351C107.898 297.124 107.742 296.973 107.898 296.669C108.054 296.365 108.287 296.365 108.677 296.365C109.456 296.441 110.235 296.82 110.781 297.431C110.936 297.655 111.095 297.886 110.936 298.113C110.781 298.417 110.469 298.417 110.235 298.343C109.924 298.266 109.534 298.19 109.222 298.039C111.014 298.875 112.809 299.71 114.679 300.398C114.523 300.398 114.367 300.319 114.289 300.245C114.211 300.168 114.131 300.094 114.056 300.015C113.9 299.71 113.975 299.406 114.289 299.332C114.445 299.253 114.679 299.253 114.757 299.253C115.614 299.253 116.315 299.56 116.938 300.094C117.172 300.245 117.328 300.472 117.25 300.776C117.172 301.004 116.86 301.08 116.627 301.08Z" fill="white"/>
<defs>
<radialGradient id="paint0_radial_1_2" cx="0" cy="0" r="1" gradientUnits="userSpaceOnUse" gradientTransform="translate(-4628.81 6065.06) rotate(90) scale(7985.28 7824.89)">
<stop stop-color="#D8D8D8"/>
<stop offset="1" stop-color="#002D74"/>
</radialGradient>
</defs>
</svg>
