<svg width="500" height="500" viewBox="0 0 500 500" fill="none" xmlns="http://www.w3.org/2000/svg">
<rect width="500" height="500" fill="white"/>
<path fill-rule="evenodd" clip-rule="evenodd" d="M145.052 255.003C145.052 247.805 150.782 242.15 158.073 242.15C165.365 242.15 171.094 247.805 171.094 255.003C171.094 262.201 165.365 267.856 158.073 267.856C150.782 267.856 145.052 262.201 145.052 255.003Z" fill="#6A3F24"/>
<path fill-rule="evenodd" clip-rule="evenodd" d="M75 297.675H109.115C109.115 297.675 100 247.034 156.25 173C78.125 212.33 75 297.675 75 297.675Z" fill="#6A3F24"/>
<path fill-rule="evenodd" clip-rule="evenodd" d="M241.667 297.675H207.552C207.552 297.675 216.667 247.034 160.417 173C238.542 212.33 241.667 297.675 241.667 297.675Z" fill="#6A3F24"/>
<path fill-rule="evenodd" clip-rule="evenodd" d="M271.615 279.681H278.906C283.854 279.681 287.24 278.91 289.323 277.624C291.406 276.082 292.448 273.768 292.448 270.427C292.448 266.828 291.406 264.257 289.583 262.715C287.76 261.172 284.375 260.401 279.167 260.401H271.615V279.681ZM252.344 297.418V210.274H273.177C281.771 210.274 283.854 210.531 287.24 211.302C290.625 211.816 293.49 213.102 296.094 214.644C298.958 216.444 301.042 218.757 302.604 221.842C304.167 224.927 304.948 228.268 304.948 232.124C304.948 237.008 303.906 241.121 301.562 243.949C299.479 246.777 298.437 247.548 295.052 250.633C300.521 251.147 304.687 253.203 307.812 257.059C310.937 260.915 312.5 266.056 312.5 272.483C312.5 277.11 311.719 281.223 309.896 284.822C308.073 288.421 305.729 290.992 302.604 293.048C300 294.59 296.875 295.876 292.969 296.39C289.062 297.161 282.812 297.418 274.219 297.418H252.344ZM271.615 245.234H275.781C278.906 245.234 280.469 244.72 282.552 243.435C284.375 242.15 285.417 239.836 285.417 236.751C285.417 233.41 284.635 231.096 282.813 229.811C280.99 228.525 278.646 227.754 276.302 227.754H271.875V245.234H271.615Z" fill="#9C9B9B"/>
<path fill-rule="evenodd" clip-rule="evenodd" d="M388.542 214.13V236.751C385.417 233.153 382.031 231.353 378.906 229.811C375.781 228.268 372.396 227.24 368.75 227.24C361.979 227.24 356.511 229.554 352.344 233.924C348.177 238.551 344.531 243.949 344.271 253.46C344.011 262.458 348.177 267.856 352.604 272.226C356.771 276.596 362.24 278.91 368.75 278.91C372.396 278.91 375.781 278.138 378.906 276.596C382.031 275.054 385.417 272.997 388.542 269.398V292.02C384.896 293.819 381.25 295.105 377.604 295.876C373.958 296.647 370.313 297.161 366.406 297.161C361.719 297.161 357.292 296.647 353.386 295.362C349.479 294.333 345.833 292.534 342.448 290.477C335.938 286.364 331.25 280.966 327.865 274.54C324.479 268.113 322.917 260.915 322.917 252.946C322.917 246.52 323.958 240.607 326.042 235.466C328.125 230.068 331.511 225.441 335.677 221.071C339.844 216.958 344.271 213.873 349.219 211.816C354.427 209.76 359.896 208.732 366.146 208.732C369.792 208.732 373.698 209.246 377.344 210.017C380.99 211.045 384.636 212.331 388.542 214.13Z" fill="#9C9B9B"/>
<path d="M425 209.503H405.99V297.418H425V209.503Z" fill="#9C9B9B"/>
<path fill-rule="evenodd" clip-rule="evenodd" d="M76.5631 325.438H78.386C79.4277 325.438 80.2089 325.438 80.4693 325.438C80.7297 325.438 81.2506 325.181 81.511 324.924C81.7714 324.667 82.0318 324.409 82.2922 323.895C82.5527 323.381 82.5527 322.867 82.5527 322.61C82.5527 322.096 82.5527 321.582 82.2922 321.068C82.0318 320.554 81.7714 320.296 81.511 320.039C80.9902 319.782 80.7297 319.525 80.4693 319.525C80.2089 319.525 79.4277 319.525 78.9068 319.525H78.386H76.5631V325.438ZM76.5631 318.24H78.386C79.6881 318.24 80.4693 317.983 80.9902 317.726C81.511 317.212 81.7714 316.698 81.7714 315.669C81.7714 314.641 81.511 313.87 80.9902 313.356C80.4693 312.842 79.6881 312.842 78.386 312.842H76.5631V318.24ZM75.261 326.723V311.556H77.8652C78.9068 311.556 79.9485 311.556 80.4693 311.813C80.9902 311.813 81.511 312.07 81.7714 312.328C82.2922 312.585 82.5527 313.099 82.8131 313.613C83.0735 314.127 83.3339 314.641 83.3339 315.412C83.3339 316.183 83.0735 316.955 82.8131 317.469C82.2922 317.983 81.7714 318.497 80.9902 318.497C82.0318 318.754 82.8131 319.011 83.3339 319.782C83.8547 320.296 84.1152 321.325 84.1152 322.096C84.1152 322.867 84.1152 323.381 83.8547 323.895C83.5943 324.667 83.3339 325.181 82.8131 325.438C82.2922 325.952 81.7714 326.209 81.2506 326.209C80.7297 326.466 79.4277 326.466 78.1256 326.466H75.261V326.723Z" fill="#9C9B9B"/>
<path fill-rule="evenodd" clip-rule="evenodd" d="M89.0624 320.297H94.2707L91.6665 313.613L89.0624 320.297ZM85.1561 326.723L91.927 311.042L98.4374 326.723H96.6145L94.5311 321.582H88.5415L86.4582 326.723H85.1561Z" fill="#9C9B9B"/>
<path fill-rule="evenodd" clip-rule="evenodd" d="M99.9999 326.723V310.785L110.677 323.638V311.556H111.979V326.98L101.302 314.384V326.723H99.9999Z" fill="#9C9B9B"/>
<path fill-rule="evenodd" clip-rule="evenodd" d="M128.125 314.384C127.344 313.613 126.562 313.356 125.781 312.842C125 312.585 124.219 312.328 123.177 312.328C121.094 312.328 119.531 312.842 118.229 314.127C116.927 315.412 116.406 316.955 116.406 319.011C116.406 320.039 116.667 320.811 116.927 321.582C117.187 322.353 117.708 323.124 118.229 323.638C118.75 324.152 119.531 324.667 120.312 324.924C121.094 325.181 121.875 325.438 122.917 325.438C123.698 325.438 124.739 325.181 125.521 324.924C126.302 324.667 127.083 324.152 127.864 323.638V325.181C127.083 325.695 126.302 325.952 125.521 326.209C124.739 326.466 123.958 326.466 122.917 326.466C121.875 326.466 120.833 326.209 119.792 325.952C118.75 325.438 117.969 324.924 117.187 324.41C116.406 323.638 115.885 322.867 115.364 321.839C115.104 320.811 114.844 319.782 114.844 318.754C114.844 317.726 115.104 316.698 115.364 315.669C115.885 314.641 116.406 313.87 117.187 313.099C117.969 312.328 118.75 311.813 119.792 311.556C120.833 311.042 121.875 311.042 122.917 311.042C123.958 311.042 124.739 311.299 125.521 311.556C126.302 311.813 127.083 312.328 127.864 312.842L128.125 314.384Z" fill="#9C9B9B"/>
<path fill-rule="evenodd" clip-rule="evenodd" d="M138.801 325.695C139.583 325.695 140.624 325.438 141.406 325.181C142.187 324.924 142.968 324.41 143.489 323.638C144.01 323.124 144.531 322.353 145.051 321.582C145.312 320.811 145.572 319.782 145.572 319.011C145.572 317.983 145.312 317.212 145.051 316.441C144.791 315.669 144.27 314.898 143.489 314.384C142.968 313.87 142.187 313.356 141.406 312.842C140.624 312.585 139.843 312.328 138.801 312.328C138.02 312.328 136.979 312.585 136.197 312.842C135.416 313.099 134.635 313.613 134.114 314.384C133.593 315.155 133.072 315.669 132.551 316.441C132.291 317.212 132.031 317.983 132.031 319.011C132.031 320.039 132.291 320.811 132.551 321.582C132.812 322.353 133.333 323.124 134.114 323.638C134.635 324.152 135.416 324.667 136.197 325.181C136.979 325.695 137.76 325.695 138.801 325.695ZM146.874 319.011C146.874 320.039 146.614 321.068 146.354 322.096C145.833 323.124 145.312 323.895 144.531 324.667C143.749 325.438 142.968 325.952 141.926 326.466C140.885 326.98 139.843 326.98 138.801 326.98C137.76 326.98 136.718 326.723 135.676 326.466C134.635 325.952 133.854 325.438 133.072 324.667C132.291 323.895 131.77 323.124 131.249 322.096C130.729 321.068 130.729 320.039 130.729 319.011C130.729 317.983 130.989 316.955 131.249 315.926C131.77 314.898 132.291 314.127 133.072 313.356C133.854 312.585 134.635 312.071 135.676 311.556C136.718 311.042 137.76 311.042 138.801 311.042C139.843 311.042 140.885 311.299 141.926 311.556C142.968 312.071 143.749 312.585 144.531 313.356C145.312 314.127 145.833 314.898 146.354 315.926C146.614 316.955 146.874 317.983 146.874 319.011Z" fill="#9C9B9B"/>
<path fill-rule="evenodd" clip-rule="evenodd" d="M157.552 325.438H159.635C161.198 325.438 162.239 325.438 163.02 325.181C163.802 324.924 164.323 324.667 164.583 324.409C165.104 323.895 165.625 323.124 166.145 322.096C166.406 321.325 166.666 320.296 166.666 319.011C166.666 317.726 166.406 316.955 166.145 315.926C165.885 315.155 165.364 314.384 164.583 313.87C164.062 313.356 163.541 313.099 162.76 312.842C161.979 312.585 160.937 312.585 159.114 312.585H158.854H157.552V325.438ZM156.25 326.723V311.556H158.593C160.677 311.556 162.239 311.556 163.02 311.813C163.802 312.07 164.583 312.328 165.364 312.842C166.145 313.613 166.927 314.384 167.187 315.412C167.708 316.441 167.968 317.726 167.968 319.011C167.968 320.296 167.708 321.582 167.187 322.61C166.666 323.638 166.145 324.409 165.364 325.181C164.583 325.695 164.062 325.952 163.02 326.209C162.239 326.466 160.677 326.466 158.854 326.466H158.333H156.25V326.723Z" fill="#9C9B9B"/>
<path fill-rule="evenodd" clip-rule="evenodd" d="M171.093 326.723V311.556H178.645V312.842H172.395V317.469H178.645V318.754H172.395V325.438H178.645V326.723H171.093Z" fill="#9C9B9B"/>
<path fill-rule="evenodd" clip-rule="evenodd" d="M200.521 314.384C199.74 313.613 198.959 313.356 198.177 312.842C197.396 312.585 196.615 312.328 195.573 312.328C193.49 312.328 191.927 312.842 190.625 314.127C189.323 315.412 188.802 316.955 188.802 319.011C188.802 320.039 189.063 320.811 189.323 321.582C189.584 322.353 190.104 323.124 190.625 323.638C191.146 324.152 191.927 324.667 192.709 324.924C193.49 325.181 194.271 325.438 195.313 325.438C196.094 325.438 197.136 325.181 197.917 324.924C198.698 324.667 199.479 324.152 200.261 323.638V325.181C199.479 325.695 198.698 325.952 197.917 326.209C197.136 326.466 196.354 326.466 195.313 326.466C194.271 326.466 193.229 326.209 192.188 325.952C191.146 325.438 190.365 324.924 189.584 324.41C188.802 323.638 188.282 322.867 187.761 321.839C187.5 320.811 187.24 319.782 187.24 318.754C187.24 317.726 187.5 316.698 187.761 315.669C188.282 314.641 188.802 313.87 189.584 313.099C190.365 312.328 191.146 311.813 192.188 311.556C193.229 311.042 194.271 311.042 195.313 311.042C196.354 311.042 197.136 311.299 197.917 311.556C198.698 311.813 199.479 312.328 200.261 312.842L200.521 314.384Z" fill="#9C9B9B"/>
<path fill-rule="evenodd" clip-rule="evenodd" d="M210.938 325.695C211.719 325.695 212.761 325.438 213.542 325.181C214.323 324.924 215.105 324.41 215.625 323.638C216.146 323.124 216.667 322.353 217.188 321.582C217.448 320.811 217.709 319.782 217.709 319.011C217.709 317.983 217.448 317.212 217.188 316.441C216.928 315.669 216.407 314.898 215.625 314.384C215.105 313.87 214.323 313.356 213.542 312.842C212.761 312.585 211.98 312.328 210.938 312.328C210.157 312.328 209.115 312.585 208.334 312.842C207.553 313.099 206.771 313.613 206.25 314.384C205.73 315.155 205.209 315.669 204.688 316.441C204.428 317.212 204.167 317.983 204.167 319.011C204.167 320.039 204.428 320.811 204.688 321.582C204.948 322.353 205.469 323.124 206.25 323.638C206.771 324.152 207.553 324.667 208.334 325.181C209.115 325.695 210.157 325.695 210.938 325.695ZM219.271 319.011C219.271 320.039 219.011 321.068 218.75 322.096C218.23 323.124 217.709 323.895 216.928 324.667C216.146 325.438 215.365 325.952 214.323 326.466C213.282 326.98 212.24 326.98 211.198 326.98C210.157 326.98 209.115 326.723 208.073 326.466C207.032 325.952 206.25 325.438 205.469 324.667C204.688 323.895 204.167 323.124 203.646 322.096C203.125 321.068 203.125 320.039 203.125 319.011C203.125 317.983 203.386 316.955 203.646 315.926C204.167 314.898 204.688 314.127 205.469 313.356C206.25 312.585 207.032 312.071 208.073 311.556C209.115 311.042 210.157 311.042 211.198 311.042C212.24 311.042 213.282 311.299 214.323 311.556C215.365 312.071 216.146 312.585 216.928 313.356C217.709 314.127 218.23 314.898 218.75 315.926C219.011 316.955 219.271 317.983 219.271 319.011Z" fill="#9C9B9B"/>
<path fill-rule="evenodd" clip-rule="evenodd" d="M229.167 327.237L223.958 315.155L222.656 326.723H221.354L223.437 310.785L229.167 324.409L235.417 310.785L237.24 326.723H235.937L234.635 315.155L229.167 327.237Z" fill="#9C9B9B"/>
<path fill-rule="evenodd" clip-rule="evenodd" d="M242.448 310.014L244.791 306.415H246.614L243.75 310.014H242.448ZM240.104 326.723V311.556H247.656V312.842H241.666V317.469H247.917V318.754H241.666V325.181H247.917V326.466H240.104V326.723Z" fill="#9C9B9B"/>
<path fill-rule="evenodd" clip-rule="evenodd" d="M252.604 312.842V318.497H253.906C255.208 318.497 255.99 318.24 256.51 317.983C257.031 317.469 257.292 316.955 257.292 315.926C257.292 314.898 257.031 314.127 256.51 313.613C255.99 313.099 255.208 312.842 253.906 312.842H252.604ZM260.417 326.723H258.594L253.385 319.525H252.604V326.723H251.302V311.556H254.167C255.729 311.556 257.031 311.813 257.812 312.585C258.594 313.356 259.115 314.384 259.115 315.669C259.115 316.955 258.854 317.726 258.073 318.497C257.292 319.011 256.25 319.525 254.948 319.525L260.417 326.723Z" fill="#9C9B9B"/>
<path fill-rule="evenodd" clip-rule="evenodd" d="M274.739 314.384C273.958 313.613 273.177 313.356 272.396 312.842C271.614 312.585 270.833 312.328 269.791 312.328C267.708 312.328 266.146 312.842 264.843 314.127C263.541 315.412 263.021 316.955 263.021 319.011C263.021 320.039 263.281 320.811 263.541 321.582C263.802 322.353 264.323 323.124 264.843 323.638C265.364 324.152 266.146 324.667 266.927 324.924C267.708 325.181 268.489 325.438 269.531 325.438C270.312 325.438 271.354 325.181 272.135 324.924C272.916 324.667 273.698 324.152 274.479 323.638V325.181C273.698 325.695 272.916 325.952 272.135 326.209C271.354 326.466 270.573 326.466 269.531 326.466C268.489 326.466 267.448 326.209 266.406 325.952C265.364 325.438 264.583 324.924 263.802 324.41C263.021 323.638 262.5 322.867 261.979 321.839C261.718 320.811 261.458 319.782 261.458 318.754C261.458 317.726 261.718 316.698 261.979 315.669C262.5 314.641 263.021 313.87 263.802 313.099C264.583 312.328 265.364 311.813 266.406 311.556C267.448 311.042 268.489 311.042 269.531 311.042C270.573 311.042 271.354 311.299 272.135 311.556C272.916 311.813 273.698 312.328 274.479 312.842L274.739 314.384Z" fill="#9C9B9B"/>
<path d="M279.166 311.556H277.864V326.723H279.166V311.556Z" fill="#9C9B9B"/>
<path fill-rule="evenodd" clip-rule="evenodd" d="M290.625 325.695C291.406 325.695 292.448 325.438 293.229 325.181C294.01 324.924 294.791 324.41 295.312 323.638C295.833 323.124 296.354 322.353 296.875 321.582C297.135 320.811 297.396 319.782 297.396 319.011C297.396 317.983 297.135 317.212 296.875 316.441C296.614 315.669 296.093 314.898 295.312 314.384C294.791 313.87 294.01 313.356 293.229 312.842C292.448 312.585 291.666 312.328 290.625 312.328C289.843 312.328 288.802 312.585 288.021 312.842C287.239 313.099 286.458 313.613 285.937 314.384C285.416 315.155 284.896 315.669 284.375 316.441C284.114 317.212 283.854 317.983 283.854 319.011C283.854 320.039 284.114 320.811 284.375 321.582C284.635 322.353 285.156 323.124 285.937 323.638C286.458 324.152 287.239 324.667 288.021 325.181C288.802 325.695 289.583 325.695 290.625 325.695ZM298.698 319.011C298.698 320.039 298.437 321.068 298.177 322.096C297.656 323.124 297.135 323.895 296.354 324.667C295.573 325.438 294.791 325.952 293.75 326.466C292.708 326.98 291.666 326.98 290.625 326.98C289.583 326.98 288.541 326.723 287.5 326.466C286.458 325.952 285.677 325.438 284.896 324.667C284.114 323.895 283.593 323.124 283.073 322.096C282.552 321.068 282.552 320.039 282.552 319.011C282.552 317.983 282.812 316.955 283.073 315.926C283.593 314.898 284.114 314.127 284.896 313.356C285.677 312.585 286.458 312.071 287.5 311.556C288.541 311.042 289.583 311.042 290.625 311.042C291.666 311.042 292.708 311.299 293.75 311.556C294.791 312.071 295.573 312.585 296.354 313.356C297.135 314.127 297.656 314.898 298.177 315.926C298.437 316.955 298.698 317.983 298.698 319.011Z" fill="#9C9B9B"/>
<path fill-rule="evenodd" clip-rule="evenodd" d="M308.073 326.723V311.556H315.625V312.842H309.375V317.469H315.625V318.754H309.375V325.438H315.625V326.723H308.073Z" fill="#9C9B9B"/>
<path d="M326.302 311.556H325V326.723H326.302V311.556Z" fill="#9C9B9B"/>
<path fill-rule="evenodd" clip-rule="evenodd" d="M330.469 326.723V310.785L341.146 323.638V311.556H342.448V326.98L331.771 314.384V326.723H330.469Z" fill="#9C9B9B"/>
<path fill-rule="evenodd" clip-rule="evenodd" d="M347.656 325.438H349.74C351.302 325.438 352.344 325.438 353.125 325.181C353.906 324.924 354.427 324.667 354.688 324.409C355.208 323.895 355.729 323.124 356.25 322.096C356.511 321.325 356.771 320.296 356.771 319.011C356.771 317.726 356.511 316.955 356.25 315.926C355.99 315.155 355.469 314.384 354.688 313.87C354.167 313.356 353.646 313.099 352.865 312.842C352.083 312.585 351.042 312.585 349.219 312.585H348.958H347.656V325.438ZM346.354 326.723V311.556H348.698C350.781 311.556 352.344 311.556 353.125 311.813C353.906 312.07 354.688 312.328 355.469 312.842C356.25 313.613 357.031 314.384 357.292 315.412C357.813 316.441 358.073 317.726 358.073 319.011C358.073 320.296 357.813 321.582 357.292 322.61C356.771 323.638 356.25 324.409 355.469 325.181C354.688 325.695 354.167 325.952 353.125 326.209C352.344 326.466 350.781 326.466 348.958 326.466H348.438H346.354V326.723Z" fill="#9C9B9B"/>
<path fill-rule="evenodd" clip-rule="evenodd" d="M365.364 310.014L367.708 306.415H369.531L366.666 310.014H365.364ZM361.197 311.556H362.499V321.325C362.499 322.867 362.76 323.895 363.541 324.667C364.322 325.438 365.364 325.695 366.666 325.695C367.968 325.695 369.01 325.438 369.791 324.667C370.572 323.895 370.833 322.867 370.833 321.325V311.556H372.135V321.068C372.135 323.124 371.614 324.667 370.833 325.695C369.791 326.723 368.489 327.237 366.666 327.237C364.843 327.237 363.281 326.723 362.499 325.695C361.458 324.667 361.197 323.124 361.197 321.068V311.556Z" fill="#9C9B9B"/>
<path fill-rule="evenodd" clip-rule="evenodd" d="M375 324.153L376.302 323.638C376.562 324.41 376.823 324.924 377.344 325.438C377.865 325.952 378.646 325.952 379.427 325.952C380.469 325.952 381.25 325.695 381.771 325.181C382.292 324.667 382.552 323.895 382.552 322.867C382.552 322.096 382.292 321.582 382.031 321.068C381.771 320.554 380.99 320.04 379.688 319.268C378.125 318.497 377.083 317.726 376.563 317.212C376.042 316.698 375.781 315.927 375.781 314.898C375.781 313.87 376.042 312.842 376.823 312.328C377.604 311.556 378.385 311.299 379.688 311.299C380.469 311.299 381.25 311.556 381.771 311.814C382.292 312.071 382.813 312.585 383.073 313.356L382.031 313.87C381.771 313.356 381.51 313.099 380.99 312.842C380.469 312.585 380.208 312.585 379.427 312.585C378.646 312.585 378.125 312.842 377.604 313.356C377.083 313.87 376.823 314.384 376.823 315.155C376.823 316.184 377.604 317.212 379.427 318.24C379.688 318.497 379.948 318.497 380.208 318.497C381.51 319.268 382.292 319.782 382.812 320.554C383.333 321.068 383.594 322.096 383.594 323.124C383.594 324.41 383.073 325.438 382.292 326.466C381.51 327.237 380.469 327.751 378.906 327.751C377.865 327.751 377.083 327.494 376.302 326.98C375.781 325.695 375.26 325.181 375 324.153Z" fill="#9C9B9B"/>
<path fill-rule="evenodd" clip-rule="evenodd" d="M389.323 326.723V312.842H385.156V311.556H395.052V312.842H390.885V326.723H389.323Z" fill="#9C9B9B"/>
<path fill-rule="evenodd" clip-rule="evenodd" d="M398.698 312.842V318.497H400C401.302 318.497 402.083 318.24 402.604 317.983C403.125 317.469 403.385 316.955 403.385 315.926C403.385 314.898 403.125 314.127 402.604 313.613C402.083 313.099 401.302 312.842 400 312.842H398.698ZM406.771 326.723H404.948L399.479 319.525H398.698V326.723H397.396V311.556H400.26C401.823 311.556 403.125 311.813 403.906 312.585C404.687 313.356 405.208 314.384 405.208 315.669C405.208 316.955 404.948 317.726 404.167 318.497C403.385 319.268 402.604 319.525 401.302 319.525L406.771 326.723Z" fill="#9C9B9B"/>
<path d="M409.896 311.556H408.594V326.723H409.896V311.556Z" fill="#9C9B9B"/>
<path fill-rule="evenodd" clip-rule="evenodd" d="M415.625 320.297H420.833L418.229 313.613L415.625 320.297ZM411.718 326.723L418.489 311.042L424.999 326.723H423.437L421.354 321.582H415.104L413.02 326.723H411.718Z" fill="#9C9B9B"/>
</svg>
