<svg width="500" height="500" viewBox="0 0 500 500" fill="none" xmlns="http://www.w3.org/2000/svg">
<rect width="500" height="500" fill="white"/>
<path d="M138.798 219.506C137.486 218.57 137.515 215.553 139.41 216.056C139.494 216.079 139.573 216.124 139.639 216.186C139.705 216.249 139.757 216.327 139.791 216.414C140.126 217.304 140.184 218.19 139.965 219.072C139.936 219.192 139.878 219.302 139.796 219.394C139.714 219.486 139.611 219.556 139.496 219.599C139.381 219.642 139.257 219.656 139.135 219.639C139.013 219.623 138.897 219.577 138.798 219.506Z" fill="#F80000"/>
<path d="M122.671 276.667L122.498 281.538C122.491 281.723 122.408 281.903 122.267 282.04C121.801 282.495 121.206 282.84 120.481 283.075C114.322 283.918 104.552 284.721 98.6753 282.462C98.4984 282.394 98.3463 282.274 98.239 282.117C98.1317 281.96 98.0743 281.775 98.0744 281.584C98.0455 268.052 108.983 252.659 101.535 242.132C99.7789 239.648 95.7401 236.562 92.9667 234.754C92.308 234.326 68.5143 218.061 76.7191 217.882C84.8718 217.697 82.8553 228.352 91.4297 227.652C95.4859 227.317 94.4978 224.111 93.0187 221.811C92.1019 220.378 91.6647 218.824 91.7071 217.148C91.7995 213.93 95.4281 220.049 95.5957 220.338C99.0239 226.223 101.31 230.014 102.454 231.709C103.968 233.954 105.149 235.378 105.996 235.979C108.388 237.683 108.752 235.528 109.255 233.783C111.358 226.532 104.239 223.186 99.2531 220.049C98.2516 219.417 98.292 218.862 99.3744 218.385C102.028 217.21 104.394 217.855 106.47 220.32C111.017 225.728 112.3 225.174 114.917 218.928C114.992 218.748 115.118 218.602 115.275 218.512C119.753 215.952 117.13 223.931 116.853 225.237C116.558 226.659 117.176 230.697 119.563 228.999C120.321 228.463 120.911 227.782 121.331 226.953C122.725 224.203 124.173 221.484 125.676 218.795C126.352 217.581 127.756 215.79 128.709 218.304C131.61 225.983 123.521 227.999 119.915 232.604C116.887 236.47 120.412 240.78 124.763 237.764C130.05 234.106 134.909 226.711 133.031 219.927C132.673 218.622 133.077 217.761 134.504 217.749C135.622 217.737 136.147 218.313 136.082 219.477C136.028 220.474 135.991 221.476 135.972 222.481C135.932 224.665 137.492 226.468 139.057 223.695C140.375 221.354 142.49 216.409 146.176 218.286C147.058 218.737 147.222 219.373 146.667 220.193C144.05 224.053 140.017 227.236 136.665 230.461C132.84 234.13 131.286 241.589 124.462 244.097C119.106 246.061 118.748 249.973 119.655 255.04C120.944 262.216 122.475 269.017 122.671 276.667Z" fill="#F80000"/>
<path d="M108.945 220.237C109.377 221.411 110.456 222.095 111.354 221.764C112.252 221.434 112.631 220.214 112.199 219.04C111.767 217.866 110.688 217.182 109.79 217.513C108.891 217.843 108.513 219.063 108.945 220.237Z" fill="#F80000"/>
<path d="M121.521 217.836C123.948 218.697 120.562 223.232 119.551 224.122C119.255 224.38 119.11 224.313 119.118 223.92C119.153 221.971 119.565 220.11 120.354 218.338C120.451 218.124 120.624 217.954 120.84 217.861C121.056 217.768 121.299 217.759 121.521 217.836Z" fill="#F80000"/>
<path d="M88.1306 224.873C85.4766 223.067 85.1838 220.921 87.2524 218.437C87.8725 217.693 88.5004 217.687 89.136 218.419C90.7654 220.303 91.295 222.154 90.7249 223.972C90.2627 225.436 89.3979 225.736 88.1306 224.873Z" fill="#F80000"/>
<path d="M105.881 233.234C103.454 231.058 101.915 228.642 101.264 225.988C100.906 224.521 101.451 224.005 102.899 224.44C106.378 225.486 108.33 229.605 107.4 232.801C107.123 233.744 106.616 233.889 105.881 233.234Z" fill="#F80000"/>
<path d="M121.527 235.377C122.411 231.685 125.144 228.785 129.009 228.271C129.645 228.182 129.801 228.428 129.477 229.01C127.709 232.173 125.404 234.555 122.561 236.157C121.621 236.685 121.276 236.425 121.527 235.377Z" fill="#F80000"/>
<path d="M391.924 247.627C395.044 232.581 411.927 231.899 423.818 233.442C423.859 233.447 423.897 233.46 423.933 233.479C423.968 233.499 423.998 233.525 424.023 233.555C424.048 233.586 424.066 233.621 424.077 233.658C424.087 233.695 424.09 233.733 424.084 233.771L423.2 240.156C423.195 240.191 423.182 240.225 423.162 240.254C423.141 240.284 423.114 240.309 423.081 240.328C423.049 240.346 423.012 240.358 422.974 240.362C422.936 240.367 422.897 240.363 422.859 240.352C415.793 238.342 404.982 238.307 402.047 246.899C398.748 256.554 403.711 266.723 414.146 268.451C417.798 269.055 421.201 268.547 424.356 266.925C424.419 266.892 424.489 266.876 424.56 266.877C424.632 266.878 424.701 266.897 424.763 266.932C424.825 266.967 424.878 267.017 424.915 267.078C424.953 267.138 424.975 267.207 424.98 267.278C425.621 277.337 410.749 275.355 405.017 273.223C394.253 269.213 389.648 258.582 391.924 247.627Z" fill="#F80000"/>
<path d="M201.645 251.666C207.114 253.156 209.793 256.488 209.682 261.661C209.358 276.395 187.737 274.546 178.562 273.784C178.483 273.778 178.409 273.742 178.356 273.683C178.302 273.624 178.272 273.546 178.273 273.466L178.261 233.916C178.261 233.803 178.305 233.694 178.384 233.613C178.463 233.532 178.57 233.485 178.683 233.482C183.213 233.317 187.743 233.205 192.273 233.147C198.501 233.072 208.948 234.823 207.763 243.709C207.295 247.217 204.857 249.973 201.627 251.354C201.331 251.477 201.336 251.581 201.645 251.666ZM198.241 243.068C197.311 238.232 191.62 238.498 188.072 238.804C187.993 238.812 187.919 238.85 187.866 238.908C187.812 238.967 187.783 239.043 187.783 239.122L187.806 250.342C187.806 250.379 187.814 250.416 187.829 250.45C187.843 250.484 187.865 250.514 187.892 250.539C187.919 250.564 187.951 250.583 187.986 250.595C188.021 250.607 188.058 250.611 188.095 250.608C188.765 250.554 189.436 250.562 190.106 250.631C194.803 251.128 199.252 248.349 198.241 243.068ZM187.91 255.912C187.812 255.849 187.766 255.953 187.766 256.045C187.797 260.117 187.808 264.183 187.801 268.243C187.8 268.323 187.829 268.402 187.882 268.462C187.936 268.523 188.009 268.562 188.089 268.572C193.162 269.184 201.315 267.983 199.876 260.668C198.912 255.762 192.198 255.225 188.066 255.959C188.044 255.962 188.019 255.96 187.992 255.952C187.965 255.944 187.937 255.93 187.91 255.912Z" fill="#111317"/>
<path d="M364.872 251.643C369.437 253.451 372.765 255.878 372.782 261.176C372.846 276.367 350.953 274.483 341.651 273.824C341.569 273.818 341.492 273.781 341.436 273.72C341.381 273.659 341.35 273.578 341.35 273.495L341.356 233.933C341.356 233.853 341.385 233.777 341.437 233.718C341.49 233.66 341.562 233.626 341.639 233.621C346.658 233.305 351.662 233.151 356.65 233.159C362.607 233.17 371.268 235.291 370.812 243.132C370.598 246.882 368.062 249.69 364.855 251.4C364.689 251.489 364.695 251.569 364.872 251.643ZM356.598 250.475C361.677 249.343 363.665 242.664 358.927 239.676C356.563 238.186 353.726 238.492 351.034 238.694C350.957 238.699 350.885 238.733 350.832 238.792C350.78 238.85 350.751 238.926 350.751 239.006V250.319C350.75 250.4 350.78 250.477 350.833 250.537C350.886 250.597 350.96 250.634 351.04 250.643C353.274 250.859 355.127 250.803 356.598 250.475ZM361.746 265.874C363.561 263.05 363.638 260.598 361.977 258.518C359.545 255.468 354.738 255.312 351.074 255.93C350.994 255.942 350.921 255.984 350.868 256.048C350.815 256.111 350.786 256.192 350.786 256.277L350.757 268.26C350.756 268.342 350.784 268.421 350.836 268.484C350.888 268.547 350.96 268.591 351.04 268.607C354.037 269.215 356.899 268.911 359.626 267.694C360.512 267.297 361.219 266.69 361.746 265.874Z" fill="#F80000"/>
<path d="M386.407 233.332H377.613C377.45 233.332 377.318 233.464 377.318 233.627V273.772C377.318 273.935 377.45 274.067 377.613 274.067H386.407C386.569 274.067 386.701 273.935 386.701 273.772V233.627C386.701 233.464 386.569 233.332 386.407 233.332Z" fill="#F80000"/>
<path d="M255.668 248.725C256.308 248.231 257.003 247.596 257.754 246.818C262.717 241.681 274.724 239.11 274.736 249.944C274.743 255.722 274.759 261.5 274.782 267.278C274.79 269.385 275.781 270.134 277.758 269.525C277.789 269.515 277.823 269.512 277.856 269.517C277.889 269.523 277.92 269.535 277.946 269.555C277.973 269.574 277.994 269.599 278.009 269.628C278.023 269.657 278.03 269.689 278.029 269.722C277.96 275.488 269.31 275.962 266.895 271.594C266.379 270.658 266.115 269.055 266.103 266.786C266.08 262.43 266.073 258.069 266.08 253.705C266.084 251.914 265.4 250.81 264.029 250.394C261.134 249.51 258.32 252.388 256.333 254.098C255.264 255.011 255.535 255.912 255.541 257.195C255.564 262.734 255.549 268.269 255.495 273.801C255.495 273.839 255.488 273.877 255.473 273.913C255.458 273.948 255.437 273.98 255.41 274.007C255.383 274.034 255.351 274.055 255.316 274.069C255.281 274.084 255.244 274.091 255.206 274.09L247.198 273.992C247.121 273.99 247.047 273.958 246.993 273.902C246.939 273.845 246.909 273.77 246.909 273.691L246.886 243.484C246.886 243.449 246.893 243.413 246.907 243.381C246.921 243.348 246.942 243.319 246.967 243.294C246.993 243.269 247.024 243.25 247.057 243.237C247.091 243.224 247.127 243.217 247.163 243.218L255.085 243.305C255.162 243.306 255.237 243.338 255.292 243.393C255.346 243.448 255.378 243.522 255.379 243.599L255.426 248.603C255.43 248.804 255.51 248.844 255.668 248.725Z" fill="#111317"/>
<path d="M308.357 247.292C313.858 240.739 326.743 240.41 332.128 247.078C335.473 251.215 335.964 257.079 334.942 262.112C331.567 278.701 308.635 280.053 305.151 263.268C303.995 257.703 304.596 251.769 308.357 247.292ZM314.852 251.677C312.957 255.947 313.338 265.712 317.608 268.537C320.618 270.525 323.761 268.612 324.975 265.527C326.442 261.783 326.725 257.871 325.824 253.792C324.524 247.887 317.648 245.379 314.852 251.677Z" fill="#111317"/>
<path d="M232.337 268.532C229.674 271.294 228.108 273.2 224.941 274.362C218.528 276.702 214.634 272.143 213.414 266.4C211.675 258.218 213.241 248.563 221.319 244.674C226.623 242.126 234.631 242.427 240.802 243.288C240.88 243.299 240.952 243.339 241.004 243.4C241.056 243.462 241.085 243.541 241.085 243.623C241.097 251.173 241.102 258.719 241.102 266.261C241.102 268.497 241.49 270.398 244.28 269.525C244.31 269.516 244.342 269.513 244.373 269.518C244.403 269.524 244.432 269.536 244.457 269.555C244.481 269.574 244.5 269.599 244.511 269.627C244.523 269.655 244.527 269.686 244.523 269.716C244.161 272.405 242.743 273.959 240.27 274.379C235.567 275.18 232.998 273.258 232.563 268.613C232.543 268.424 232.468 268.397 232.337 268.532ZM232.147 248.904C222.203 245.743 220.747 257.525 222.746 263.984C224.618 270.045 229.934 265.62 231.823 262.835C233.112 260.934 232.418 251.949 232.418 249.285C232.418 249.199 232.392 249.116 232.343 249.047C232.294 248.979 232.225 248.929 232.147 248.904Z" fill="#111317"/>
<path d="M279.503 262.089C278.284 256.201 279.942 248.678 285.518 245.402C290.879 242.247 296.039 242.461 302.002 243.218C302.085 243.229 302.16 243.269 302.212 243.33C302.264 243.39 302.288 243.466 302.279 243.542L301.522 249.637C301.518 249.674 301.506 249.709 301.486 249.74C301.467 249.772 301.44 249.799 301.409 249.82C301.377 249.842 301.341 249.856 301.303 249.864C301.265 249.871 301.226 249.871 301.187 249.863C294.814 248.464 289.244 249.239 288.314 256.565C287.291 264.654 294.277 272.039 302.349 267.509C303.084 267.093 303.429 267.306 303.383 268.15C303.059 273.968 298.056 275.482 293.006 274.766C285.525 273.703 281.024 269.477 279.503 262.089Z" fill="#111317"/>
</svg>
