<svg width="500" height="500" viewBox="0 0 500 500" fill="none" xmlns="http://www.w3.org/2000/svg">
<rect width="500" height="500" fill="white"/>
<path d="M124.114 251.294C122.214 249.94 120.149 248.888 117.912 248.149C120.899 246.918 123.167 245.143 124.725 242.835C126.278 240.527 127.06 237.921 127.06 235.023C127.06 229.724 125.253 225.687 121.65 222.912C118.041 220.137 112.694 218.752 105.601 218.752H75V283.462H107.097C109.836 283.462 112.569 283.169 115.308 282.584C118.047 282 120.563 280.999 122.866 279.578C125.165 278.163 127.018 276.219 128.416 273.756C129.814 271.289 130.513 268.181 130.513 264.421C130.513 261.338 129.923 258.722 128.742 256.562C127.562 254.408 126.019 252.648 124.124 251.294H124.114ZM85.0692 228.37H104.851C108.21 228.37 111.037 229.016 113.341 230.309C115.639 231.601 116.794 233.761 116.794 236.777C116.794 239.491 115.707 241.584 113.527 243.066C111.348 244.543 108.832 245.318 105.969 245.374H85.0692V228.365V228.37ZM116.509 271.494C114.019 273.064 110.82 273.854 106.901 273.854H85.0692V254.992H106.435C108.547 254.992 110.664 255.269 112.776 255.823C114.889 256.377 116.664 257.331 118.093 258.691C119.522 260.045 120.242 261.897 120.242 264.236C120.242 267.503 118.999 269.919 116.509 271.494ZM157.542 230.298C161.218 228.416 165.08 227.472 169.138 227.472C173.197 227.472 177.013 228.303 180.404 229.97C182.464 230.981 184.395 232.181 186.233 233.525C189.349 231.745 192.958 229.678 195.748 228.082C194.216 226.39 192.259 224.774 189.815 223.235C187.123 221.542 184.048 220.142 180.595 219.044C177.142 217.946 173.451 217.398 169.521 217.398C164.831 217.398 160.4 218.229 156.217 219.89C152.034 221.552 148.311 223.892 145.05 226.908C141.783 229.924 139.236 233.469 137.398 237.552C135.56 241.635 134.644 246.092 134.644 250.925C134.644 256.075 135.514 260.732 137.258 264.908C139.003 269.083 141.441 272.648 144.579 275.598C147.716 278.553 151.376 280.825 155.559 282.425C159.742 284.026 164.241 284.826 169.056 284.826C172.918 284.826 176.562 284.323 179.984 283.318C183.406 282.313 186.43 281.076 189.059 279.599C191.374 278.301 193.232 276.988 194.687 275.665C191.715 273.967 187.9 271.781 184.731 269.971C183.624 270.715 182.433 271.448 181.071 272.161C177.774 273.89 174.88 274.752 170.386 274.752C165.892 274.752 161.813 273.854 157.982 272.069C154.146 270.279 151.045 267.627 148.669 264.113C146.292 260.599 145.107 256.203 145.107 250.93C145.107 246.098 146.261 241.922 148.575 238.403C150.889 234.889 153.882 232.186 157.557 230.304L157.542 230.298ZM245.121 251.535C242.745 250.124 240.068 248.975 237.092 248.098C234.115 247.221 231.009 246.528 227.778 246.026C222.834 245.21 218.874 244.082 215.897 242.635C212.92 241.194 211.217 239.275 211.217 236.418C211.217 233.746 213.163 231.268 215.659 229.873C218.475 228.298 221.949 227.518 226.065 227.518C232.453 227.518 237.79 229.914 241.575 233.52C244.64 231.766 248.3 229.668 251.085 228.077C248.636 224.784 244.816 222.178 241.513 220.552C237.278 218.47 232.184 217.392 226.354 217.392C221.726 217.392 217.481 218.305 213.619 219.803C209.752 221.301 206.646 223.456 204.306 226.267C201.96 229.078 200.79 232.145 200.79 236.038C200.79 241.937 202.898 246.416 207.112 249.457C211.326 252.504 217.01 254.623 224.175 255.813C229.88 256.69 234.311 257.87 237.48 259.342C240.648 260.82 242.424 262.646 242.424 265.498C242.424 267.632 241.471 269.109 239.954 270.494C238.432 271.879 236.47 272.925 234.063 273.633C231.656 274.341 229.15 274.695 226.556 274.695C221.488 274.695 217.062 273.654 213.34 271.648C212.361 271.12 211.424 270.55 210.513 269.96C207.36 271.766 203.576 273.967 200.62 275.654C203.457 278.419 206.584 280.538 210.016 281.989C214.768 284 220.059 284.816 225.889 284.816C231.402 284.816 236.186 284.139 240.239 282.415C244.293 280.686 247.414 278.27 249.599 275.162C251.784 272.053 252.876 268.396 252.876 264.19C252.876 261.24 252.177 258.742 250.785 256.7C249.392 254.659 247.508 252.935 245.131 251.52L245.121 251.535ZM360.247 237.629V251.402L351.586 255.777L343.059 251.412V237.624L330.101 229.55L324.624 232.684L337.468 240.686V254.787L348.785 260.584V264.436L333.839 273.043L339.353 276.198L351.586 269.237L363.638 276.326L369.151 273.172L354.376 264.436V260.594L365.838 254.797V240.681L378.584 232.663L373.122 229.539L360.247 237.634V237.629ZM420.688 220.46C419.228 217.952 417.427 215.684 415.356 213.668C412.1 200.603 400.198 190.744 386.681 189.918C379.2 178.736 364.627 173.452 351.581 177.192C338.535 173.452 323.961 178.736 316.481 189.918C302.969 190.744 291.062 200.608 287.805 213.668C278.016 222.994 275.349 238.136 281.381 250.15C275.349 262.158 278.016 277.306 287.805 286.632C291.062 299.697 302.964 309.556 316.481 310.387C323.961 321.569 338.535 326.853 351.575 323.113C364.621 326.853 379.195 321.569 386.675 310.387C400.187 309.561 412.095 299.697 415.351 286.632C425.141 277.306 427.807 262.163 421.775 250.15C426.414 240.645 426.046 229.657 420.683 220.46H420.688ZM406.892 235.274C403.961 233.597 395.026 228.488 392.241 226.892V210.134C392.769 210.113 393.302 210.124 393.83 210.134C399.846 210.324 405.773 212.617 410.298 216.561C411.592 222.927 410.339 229.75 406.892 235.269V235.274ZM379.78 190.139C376.808 190.59 373.914 191.426 371.165 192.627C368.748 188.22 365.284 184.414 361.117 181.567C368.354 181.814 375.017 184.917 379.785 190.139H379.78ZM351.581 182.978C357.793 185.055 363.131 189.534 366.232 195.258L351.581 203.64L336.93 195.258C337.049 195.027 337.178 194.807 337.308 194.586C340.45 189.185 345.612 184.973 351.575 182.978H351.581ZM345.989 206.836L333.72 213.853V207.769C333.73 205.287 334.072 202.809 334.781 200.424L345.989 206.831V206.836ZM316.517 207.749V207.585C316.553 202.788 317.904 198.11 320.426 194.053C325.126 186.487 333.156 181.87 342.045 181.572C333.44 187.379 328.041 197.438 328.119 207.78V217.064L316.507 223.707V207.759L316.517 207.749ZM313.224 195.951C312.132 198.721 311.412 201.629 311.086 204.589C306.023 204.461 300.965 205.528 296.394 207.682C300.225 201.593 306.272 197.428 313.219 195.951H313.224ZM292.868 216.567C293.081 216.377 293.303 216.192 293.526 216.013C298.366 212.073 304.662 209.949 310.926 210.134V226.892C308.001 228.565 299.055 233.684 296.275 235.274C292.827 229.755 291.574 222.932 292.868 216.567ZM310.926 233.294V247.334L310.543 247.113C307.007 245.087 302.451 242.753 299.718 239.706L310.921 233.294H310.926ZM286.868 224.035C287.645 234.32 293.733 243.984 302.808 249.088C304.211 249.883 309.59 252.971 310.921 253.73V267.011L296.984 259.04L296.834 258.947C292.667 256.521 289.255 253.023 286.967 248.837C282.706 241.019 282.685 231.822 286.868 224.04V224.035ZM286.868 276.265C283.462 269.935 282.846 262.661 285.03 255.962C286.91 258.286 289.089 260.353 291.512 262.112C288.872 266.39 287.272 271.269 286.873 276.265H286.868ZM296.275 265.026L310.926 273.408V290.166C310.424 290.186 309.916 290.176 309.414 290.166C303.367 289.992 297.414 287.699 292.868 283.739C291.574 277.373 292.827 270.55 296.275 265.031V265.026ZM296.399 292.618C305.775 297.106 317.268 296.696 326.265 291.464L334.378 286.821L345.989 293.464C342.785 295.296 335.33 299.563 332.058 301.436C320.136 308.509 303.502 304.436 296.399 292.618ZM316.517 276.603L328.786 283.621L323.47 286.662C321.29 287.894 318.96 288.843 316.522 289.422V276.598L316.517 276.603ZM323.387 310.161C326.358 309.715 329.252 308.874 332.001 307.673C334.419 312.08 337.882 315.886 342.05 318.733C334.812 318.486 328.15 315.383 323.382 310.161H323.387ZM351.581 317.322C345.368 315.25 340.031 310.766 336.93 305.042L351.581 296.66L366.232 305.042C366.118 305.262 365.993 305.473 365.869 305.688C362.727 311.105 357.56 315.327 351.586 317.322H351.581ZM357.172 293.464L369.441 286.447V292.531C369.431 295.013 369.089 297.491 368.38 299.876L357.172 293.469V293.464ZM386.644 292.536C386.867 306.324 374.996 318.543 361.112 318.738C369.716 312.931 375.115 302.872 375.038 292.531V283.246L386.65 276.603V292.536H386.644ZM386.644 270.207L370.839 279.25C368.727 280.456 354.045 288.858 351.581 290.269L335.78 281.23L316.522 270.212C316.522 260.384 316.522 240.004 316.522 230.093L332.322 221.055L351.581 210.037L367.386 219.08L386.644 230.098C386.644 239.932 386.644 260.307 386.644 270.217V270.207ZM374.375 216.669L379.692 213.627C381.871 212.396 384.206 211.447 386.644 210.862V223.686L374.375 216.669ZM389.103 204.794C384.786 205.307 380.681 206.661 376.896 208.826L368.784 213.468L357.172 206.825L371.103 198.854L371.264 198.767C383.202 191.826 399.68 195.899 406.757 207.672C401.295 205.086 395.114 204.086 389.103 204.794ZM389.937 304.344C391.029 301.569 391.744 298.666 392.075 295.706C397.133 295.834 402.201 294.767 406.767 292.613C402.936 298.702 396.89 302.867 389.942 304.344H389.937ZM410.293 283.728C410.081 283.918 409.863 284.103 409.641 284.277C404.8 288.217 398.5 290.345 392.241 290.156V273.397C395.461 271.556 403.78 266.796 406.892 265.016C407.974 266.754 408.849 268.632 409.496 270.571C410.371 273.249 410.816 276.07 410.8 278.886C410.78 280.507 410.624 282.133 410.298 283.723L410.293 283.728ZM392.236 267.001V252.966L397.552 256.008C399.716 257.26 401.715 258.788 403.439 260.589L392.236 267.001ZM416.293 276.26C415.522 265.975 409.428 256.311 400.353 251.207L392.241 246.564V233.279L406.182 241.255L406.322 241.337H406.333C418.39 248.093 423.033 264.308 416.298 276.254L416.293 276.26ZM418.131 244.333C416.252 242.009 414.072 239.942 411.649 238.183C414.29 233.905 415.889 229.026 416.288 224.03C419.694 230.36 420.31 237.634 418.126 244.333H418.131Z" fill="#C69E5C"/>
</svg>
